<?xml version="1.0" encoding="utf-8"?>
<!-- Generator: Adobe Illustrator 21.0.0, SVG Export Plug-In . SVG Version: 6.00 Build 0)  -->
<svg version="1.1" id="Layer_1" xmlns="http://www.w3.org/2000/svg" xmlns:xlink="http://www.w3.org/1999/xlink" x="0px" y="0px"
	 viewBox="0 0 900 339" style="enable-background:new 0 0 900 339;" xml:space="preserve">
<style type="text/css">
	.st0{fill:#E2DED6;}
	.st1{fill:none;stroke:#FFFFFF;stroke-width:0.5;stroke-miterlimit:10;}
	.st2{clip-path:url(#SVGID_2_);fill:none;stroke:#FA8072;stroke-linecap:round;stroke-linejoin:round;stroke-miterlimit:10;}
	.st3{clip-path:url(#SVGID_2_);fill:none;stroke:#2C9F2C;stroke-linecap:round;stroke-linejoin:round;stroke-miterlimit:10;}
	.st4{clip-path:url(#SVGID_2_);fill:none;stroke:#B24242;stroke-linecap:round;stroke-linejoin:round;stroke-miterlimit:10;}
	.st5{clip-path:url(#SVGID_2_);fill:none;stroke:#FFA500;stroke-linecap:round;stroke-linejoin:round;stroke-miterlimit:10;}
	.st6{clip-path:url(#SVGID_2_);fill:none;stroke:#FFD700;stroke-linecap:round;stroke-linejoin:round;stroke-miterlimit:10;}
	.st7{clip-path:url(#SVGID_2_);fill:none;stroke:#51DE61;stroke-linecap:round;stroke-linejoin:round;stroke-miterlimit:10;}
	.st8{clip-path:url(#SVGID_2_);fill:none;stroke:#808000;stroke-linecap:round;stroke-linejoin:round;stroke-miterlimit:10;}
	.st9{clip-path:url(#SVGID_2_);fill:none;stroke:#84AC39;stroke-linecap:round;stroke-linejoin:round;stroke-miterlimit:10;}
	.st10{clip-path:url(#SVGID_2_);fill:none;stroke:#B16E6E;stroke-linecap:round;stroke-linejoin:round;stroke-miterlimit:10;}
	.st11{clip-path:url(#SVGID_2_);fill:none;stroke:#B9A76C;stroke-linecap:round;stroke-linejoin:round;stroke-miterlimit:10;}
	.st12{fill:none;stroke:#272525;stroke-width:0.5;stroke-miterlimit:10;}
	.st13{fill:#272525;}
	.st14{font-family:'Helvetica';}
	.st15{font-size:12px;}
</style>
<g>
	<rect x="40" y="5" class="st0" width="850" height="300"/>
	<path class="st1" d="M40,257h850 M40,209h850 M40,161h850 M40,113h850 M40,65h850 M40,17h850 M210,305V5 M380,305V5 M550,305V5
		 M720,305V5"/>
	<g>
		<defs>
			<rect id="SVGID_1_" x="40" y="5" width="850" height="300"/>
		</defs>
		<clipPath id="SVGID_2_">
			<use xlink:href="#SVGID_1_"  style="overflow:visible;"/>
		</clipPath>
		<polyline class="st2" points="40,275.2 41.7,270.4 43.4,274.8 45.1,270 46.8,278.1 48.5,279.1 50.2,284.4 51.9,293.5 53.6,295.9 
			55.3,299.2 57,304 58.7,302.6 60.4,303.1 62.1,301.2 63.8,287.2 65.5,294 67.2,294.9 68.9,288.2 70.6,288.2 72.3,280.5 74,282 
			75.7,285.8 77.4,285.8 79.1,283.4 80.8,284.4 82.5,282.9 84.2,289.2 85.9,288.2 87.6,294 89.3,295.4 91,300.2 92.7,298.3 
			94.4,298.8 96.1,303.1 97.8,305 99.5,305 101.2,305 102.9,305 104.6,305 106.3,305 108,305 109.7,305 111.4,305 113.1,305 
			114.8,305 116.5,305 118.2,305 119.9,305 121.6,305 123.3,305 125,305 126.7,305 128.4,305 130.1,305 131.8,305 133.5,305 
			135.2,305 136.9,305 138.6,305 140.3,305 142,305 143.7,305 145.4,305 147.1,305 148.8,305 150.5,305 152.2,305 153.9,305 
			155.6,305 157.3,305 159,305 160.7,305 162.4,305 164.1,305 165.8,305 167.5,305 169.2,305 170.9,305 172.6,305 174.3,305 
			176,305 177.7,305 179.4,305 181.1,305 182.8,305 184.5,305 186.2,305 187.9,305 189.6,305 191.3,305 193,305 194.7,305 
			196.4,305 198.1,305 199.8,305 201.5,305 203.2,305 204.9,305 206.6,305 208.3,305 210,305 211.7,305 213.4,305 215.1,305 
			216.8,305 218.5,305 220.2,305 221.9,305 223.6,305 225.3,305 227,305 228.7,305 230.4,305 232.1,305 233.8,305 235.5,305 
			237.2,305 238.9,305 240.6,305 242.3,305 244,305 245.7,305 247.4,305 249.1,305 250.8,305 252.5,305 254.2,305 255.9,305 
			257.6,305 259.3,305 261,305 262.7,305 264.4,305 266.1,305 267.8,305 269.5,305 271.2,305 272.9,305 274.6,305 276.3,305 
			278,305 279.7,305 281.4,305 283.1,305 284.8,305 286.5,305 288.2,305 289.9,305 291.6,305 293.3,305 295,305 296.7,305 
			298.4,305 300.1,305 301.8,305 303.5,305 305.2,305 306.9,305 308.6,305 310.3,305 312,305 313.7,305 315.4,305 317.1,305 
			318.8,305 320.5,305 322.2,305 323.9,305 325.6,305 327.3,305 329,305 330.7,305 332.4,305 334.1,305 335.8,305 337.5,305 
			339.2,305 340.9,305 342.6,305 344.3,305 346,305 347.7,305 349.4,305 351.1,305 352.8,305 354.5,305 356.2,305 357.9,305 
			359.6,305 361.3,305 363,305 364.7,305 366.4,305 368.1,305 369.8,305 371.5,305 373.2,305 374.9,305 376.6,305 378.3,305 
			380,305 381.7,305 383.4,305 385.1,305 386.8,305 388.5,305 390.2,305 391.9,305 393.6,305 395.3,305 397,305 398.7,305 
			400.4,305 402.1,305 403.8,305 405.5,305 407.2,305 408.9,305 410.6,305 412.3,305 414,305 415.7,305 417.4,305 419.1,305 
			420.8,305 422.5,305 424.2,305 425.9,305 427.6,305 429.3,305 431,305 432.7,305 434.4,305 436.1,305 437.8,305 439.5,305 
			441.2,305 442.9,305 444.6,305 446.3,305 448,305 449.7,305 451.4,305 453.1,305 454.8,305 456.5,305 458.2,305 459.9,305 
			461.6,305 463.3,305 465,305 466.7,305 468.4,305 470.1,305 471.8,305 473.5,305 475.2,305 476.9,305 478.6,305 480.3,305 
			482,305 483.7,305 485.4,305 487.1,305 488.8,305 490.5,305 492.2,305 493.9,305 495.6,305 497.3,305 499,305 500.7,305 
			502.4,305 504.1,305 505.8,305 507.5,305 509.2,305 510.9,305 512.6,305 514.3,305 516,305 517.7,305 519.4,305 521.1,305 
			522.8,305 524.5,305 526.2,305 527.9,305 529.6,305 531.3,305 533,305 534.7,305 536.4,305 538.1,305 539.8,305 541.5,305 
			543.2,305 544.9,305 546.6,305 548.3,305 550,305 551.7,305 553.4,305 555.1,305 556.8,305 558.5,305 560.2,305 561.9,305 
			563.6,305 565.3,305 567,305 568.7,305 570.4,305 572.1,305 573.8,305 575.5,305 577.2,305 578.9,305 580.6,305 582.3,305 
			584,305 585.7,305 587.4,305 589.1,305 590.8,305 592.5,305 594.2,305 595.9,305 597.6,305 599.3,305 601,305 602.7,305 
			604.4,305 606.1,305 607.8,305 609.5,305 611.2,305 612.9,305 614.6,305 616.3,305 618,305 619.7,305 621.4,305 623.1,305 
			624.8,305 626.5,305 628.2,305 629.9,305 631.6,305 633.3,305 635,305 636.7,305 638.4,305 640.1,305 641.8,305 643.5,305 
			645.2,305 646.9,305 648.6,305 650.3,305 652,305 653.7,305 655.4,305 657.1,305 658.8,305 660.5,305 662.2,305 663.9,305 
			665.6,305 667.3,305 669,305 670.7,305 672.4,305 674.1,305 675.8,305 677.5,305 679.2,305 680.9,305 682.6,305 684.3,305 
			686,305 687.7,305 689.4,305 691.1,305 692.8,305 694.5,305 696.2,305 697.9,305 699.6,305 701.3,305 703,305 704.7,305 
			706.4,305 708.1,305 709.8,305 711.5,305 713.2,305 714.9,305 716.6,305 718.3,305 720,305 721.7,305 723.4,305 725.1,305 
			726.8,305 728.5,305 730.2,305 731.9,305 733.6,305 735.3,305 737,305 738.7,305 740.4,305 742.1,305 743.8,305 745.5,305 
			747.2,305 748.9,305 750.6,305 752.3,305 754,305 755.7,305 757.4,305 759.1,305 760.8,305 762.5,305 764.2,305 765.9,305 
			767.6,305 769.3,305 771,305 772.7,305 774.4,305 776.1,305 777.8,305 779.5,305 781.2,305 782.9,305 784.6,305 786.3,305 
			788,305 789.7,305 791.4,305 793.1,305 794.8,305 796.5,305 798.2,305 799.9,305 801.6,305 803.3,305 805,305 806.7,305 
			808.4,305 810.1,305 811.8,305 813.5,305 815.2,305 816.9,305 818.6,305 820.3,305 822,305 823.7,305 825.4,305 827.1,305 
			828.8,305 830.5,305 832.2,305 833.9,305 835.6,305 837.3,305 839,305 840.7,305 842.4,305 844.1,305 845.8,305 847.5,305 
			849.2,305 850.9,305 852.6,305 854.3,305 856,305 857.7,305 859.4,305 861.1,305 862.8,305 864.5,305 866.2,305 867.9,305 
			869.6,305 871.3,305 873,305 874.7,305 876.4,305 878.1,305 879.8,305 881.5,305 883.2,305 884.9,305 886.6,305 888.3,305 		"/>
		<polyline class="st3" points="40,275.2 41.7,269.5 43.4,258.4 45.1,254.1 46.8,243.1 48.5,242.1 50.2,249.8 51.9,254.6 53.6,245 
			55.3,253.6 57,245 58.7,247.9 60.4,258.9 62.1,248.4 63.8,237.3 65.5,228.2 67.2,221.5 68.9,229.6 70.6,225.3 72.3,222.9 
			74,218.6 75.7,218.1 77.4,212.8 79.1,213.8 80.8,211.9 82.5,205.6 84.2,205.6 85.9,206.1 87.6,192.2 89.3,195.6 91,185 
			92.7,198.9 94.4,190.3 96.1,198 97.8,187.9 99.5,188.8 101.2,209 102.9,194.6 104.6,184.5 106.3,189.3 108,199.4 109.7,208 
			111.4,211.9 113.1,189.8 114.8,186.4 116.5,168.7 118.2,170.1 119.9,167.7 121.6,166.8 123.3,163.4 125,157.2 126.7,147.1 
			128.4,161 130.1,144.2 131.8,149.5 133.5,152.4 135.2,146.6 136.9,150 138.6,153.3 140.3,143.7 142,143.7 143.7,144.7 
			145.4,150.9 147.1,141.8 148.8,139.9 150.5,126 152.2,126.9 153.9,134.6 155.6,134.6 157.3,140.4 159,134.1 160.7,125.5 
			162.4,149.5 164.1,145.2 165.8,130.8 167.5,147.1 169.2,141.8 170.9,152.8 172.6,150 174.3,158.6 176,154.3 177.7,162.4 
			179.4,163.9 181.1,165.8 182.8,165.8 184.5,172.5 186.2,172.5 187.9,168.2 189.6,173.5 191.3,156.2 193,149.5 194.7,150.9 
			196.4,145.6 198.1,150 199.8,150.9 201.5,155.7 203.2,149 204.9,140.8 206.6,164.8 208.3,189.8 210,177.8 211.7,182.6 
			213.4,194.6 215.1,203.2 216.8,196.5 218.5,206.1 220.2,198.9 221.9,204.7 223.6,206.6 225.3,201.8 227,189.3 228.7,187.4 
			230.4,188.4 232.1,204.2 233.8,193.2 235.5,192.7 237.2,190.8 238.9,183.1 240.6,178.3 242.3,180.7 244,190.8 245.7,193.2 
			247.4,197.5 249.1,191.2 250.8,186.9 252.5,196 254.2,196 255.9,182.1 257.6,190.8 259.3,179.7 261,180.7 262.7,190.3 
			264.4,177.3 266.1,186.4 267.8,184.5 269.5,176.4 271.2,171.1 272.9,173 274.6,200.8 276.3,209.5 278,213.8 279.7,213.8 
			281.4,224.8 283.1,224.8 284.8,226.3 286.5,221.5 288.2,229.2 289.9,234 291.6,222.9 293.3,232 295,232.5 296.7,223.9 
			298.4,230.6 300.1,234.9 301.8,239.2 303.5,250.8 305.2,240.7 306.9,246.4 308.6,236.8 310.3,231.1 312,234.9 313.7,241.2 
			315.4,240.7 317.1,237.3 318.8,231.6 320.5,223.9 322.2,224.8 323.9,215.7 325.6,211.9 327.3,202.8 329,194.6 330.7,205.2 
			332.4,208.5 334.1,225.8 335.8,234.9 337.5,245 339.2,250.3 340.9,252.2 342.6,246 344.3,242.1 346,241.2 347.7,253.2 
			349.4,260.8 351.1,247.4 352.8,258 354.5,265.6 356.2,263.2 357.9,249.3 359.6,247.4 361.3,235.9 363,245.5 364.7,251.2 
			366.4,256.5 368.1,249.8 369.8,253.6 371.5,240.7 373.2,235.9 374.9,233.5 376.6,230.1 378.3,249.8 380,257.5 381.7,268 
			383.4,274.8 385.1,266.6 386.8,269 388.5,276.7 390.2,277.6 391.9,280 393.6,285.8 395.3,281 397,273.3 398.7,261.3 400.4,276.2 
			402.1,277.2 403.8,282 405.5,273.8 407.2,277.2 408.9,279.6 410.6,282.9 412.3,279.1 414,280 415.7,285.3 417.4,284.8 
			419.1,289.6 420.8,293 422.5,282.9 424.2,281 425.9,279.6 427.6,283.9 429.3,282.4 431,288.7 432.7,281 434.4,288.2 436.1,281 
			437.8,283.4 439.5,284.4 441.2,273.3 442.9,270.9 444.6,259.9 446.3,263.2 448,264.2 449.7,275.2 451.4,294.9 453.1,292.5 
			454.8,288.7 456.5,294.9 458.2,295.9 459.9,301.6 461.6,305 463.3,305 465,305 466.7,305 468.4,305 470.1,305 471.8,305 
			473.5,305 475.2,305 476.9,305 478.6,305 480.3,305 482,305 483.7,305 485.4,305 487.1,305 488.8,305 490.5,305 492.2,305 
			493.9,305 495.6,305 497.3,305 499,305 500.7,305 502.4,305 504.1,305 505.8,305 507.5,305 509.2,305 510.9,305 512.6,305 
			514.3,305 516,305 517.7,305 519.4,305 521.1,305 522.8,305 524.5,305 526.2,305 527.9,305 529.6,305 531.3,305 533,305 
			534.7,305 536.4,305 538.1,305 539.8,305 541.5,305 543.2,305 544.9,305 546.6,305 548.3,305 550,305 551.7,305 553.4,305 
			555.1,305 556.8,305 558.5,305 560.2,305 561.9,305 563.6,305 565.3,305 567,305 568.7,305 570.4,305 572.1,305 573.8,305 
			575.5,305 577.2,305 578.9,305 580.6,305 582.3,305 584,305 585.7,305 587.4,305 589.1,305 590.8,305 592.5,305 594.2,305 
			595.9,305 597.6,305 599.3,305 601,305 602.7,305 604.4,305 606.1,305 607.8,305 609.5,305 611.2,305 612.9,305 614.6,305 
			616.3,305 618,305 619.7,305 621.4,305 623.1,305 624.8,305 626.5,305 628.2,305 629.9,305 631.6,305 633.3,305 635,305 
			636.7,305 638.4,305 640.1,305 641.8,305 643.5,305 645.2,305 646.9,305 648.6,305 650.3,305 652,305 653.7,305 655.4,305 
			657.1,305 658.8,305 660.5,305 662.2,305 663.9,305 665.6,305 667.3,305 669,305 670.7,305 672.4,305 674.1,305 675.8,305 
			677.5,305 679.2,305 680.9,305 682.6,305 684.3,305 686,305 687.7,305 689.4,305 691.1,305 692.8,305 694.5,305 696.2,305 
			697.9,305 699.6,305 701.3,305 703,305 704.7,305 706.4,305 708.1,305 709.8,305 711.5,305 713.2,305 714.9,305 716.6,305 
			718.3,305 720,305 721.7,305 723.4,305 725.1,305 726.8,305 728.5,305 730.2,305 731.9,305 733.6,305 735.3,305 737,305 
			738.7,305 740.4,305 742.1,305 743.8,305 745.5,305 747.2,305 748.9,305 750.6,305 752.3,305 754,305 755.7,305 757.4,305 
			759.1,305 760.8,305 762.5,305 764.2,305 765.9,305 767.6,305 769.3,305 771,305 772.7,305 774.4,305 776.1,305 777.8,305 
			779.5,305 781.2,305 782.9,305 784.6,305 786.3,305 788,305 789.7,305 791.4,305 793.1,305 794.8,305 796.5,305 798.2,305 
			799.9,305 801.6,305 803.3,305 805,305 806.7,305 808.4,305 810.1,305 811.8,305 813.5,305 815.2,305 816.9,305 818.6,305 
			820.3,305 822,305 823.7,305 825.4,305 827.1,305 828.8,305 830.5,305 832.2,305 833.9,305 835.6,305 837.3,305 839,305 
			840.7,305 842.4,305 844.1,305 845.8,305 847.5,305 849.2,305 850.9,305 852.6,305 854.3,305 856,305 857.7,305 859.4,305 
			861.1,305 862.8,305 864.5,305 866.2,305 867.9,305 869.6,305 871.3,305 873,305 874.7,305 876.4,305 878.1,305 879.8,305 
			881.5,305 883.2,305 884.9,305 886.6,305 888.3,305 		"/>
		<polyline class="st4" points="40,267.6 41.7,262.8 43.4,270.9 45.1,265.6 46.8,257 48.5,247.9 50.2,245.5 51.9,250.8 53.6,246 
			55.3,238.8 57,228.2 58.7,234.9 60.4,233 62.1,219.6 63.8,229.2 65.5,217.2 67.2,227.7 68.9,222.9 70.6,223.9 72.3,221.5 
			74,235.9 75.7,233.5 77.4,222.4 79.1,237.8 80.8,245.5 82.5,250.3 84.2,240.2 85.9,238.3 87.6,240.7 89.3,243.1 91,240.7 
			92.7,250.8 94.4,250.8 96.1,252.2 97.8,246.4 99.5,257.5 101.2,244 102.9,258.9 104.6,250.8 106.3,243.1 108,234.9 109.7,222.9 
			111.4,225.3 113.1,234 114.8,224.4 116.5,227.2 118.2,208 119.9,210 121.6,212.4 123.3,205.6 125,198 126.7,201.3 128.4,196 
			130.1,207.6 131.8,198.9 133.5,191.2 135.2,186.9 136.9,180.7 138.6,175.4 140.3,191.7 142,197.5 143.7,204.2 145.4,200.4 
			147.1,207.1 148.8,208 150.5,209 152.2,220.5 153.9,213.3 155.6,209.5 157.3,210.9 159,217.6 160.7,223.4 162.4,207.6 
			164.1,201.3 165.8,208.5 167.5,212.4 169.2,227.2 170.9,220 172.6,218.6 174.3,215.7 176,218.6 177.7,224.4 179.4,235.9 
			181.1,240.7 182.8,236.4 184.5,237.3 186.2,234.4 187.9,242.1 189.6,234.9 191.3,238.3 193,253.6 194.7,272.8 196.4,274.8 
			198.1,275.2 199.8,278.6 201.5,273.8 203.2,277.6 204.9,283.4 206.6,275.2 208.3,269.5 210,272.8 211.7,268 213.4,267.1 
			215.1,268 216.8,266.6 218.5,253.6 220.2,267.6 221.9,268 223.6,268 225.3,268.5 227,267.1 228.7,271.4 230.4,270.4 232.1,268 
			233.8,269 235.5,264.7 237.2,259.9 238.9,270 240.6,279.6 242.3,280.5 244,278.1 245.7,286.3 247.4,286.3 249.1,282.4 
			250.8,276.2 252.5,281.5 254.2,283.9 255.9,277.6 257.6,279.6 259.3,282 261,269 262.7,262.8 264.4,249.8 266.1,237.8 
			267.8,239.7 269.5,241.2 271.2,255.1 272.9,258.4 274.6,254.1 276.3,243.6 278,241.2 279.7,229.6 281.4,192.2 283.1,207.1 
			284.8,195.1 286.5,199.9 288.2,190.3 289.9,181.2 291.6,186.9 293.3,198.4 295,199.4 296.7,184 298.4,186 300.1,174.4 
			301.8,159.1 303.5,163.4 305.2,185 306.9,181.6 308.6,185 310.3,193.2 312,174.4 313.7,165.8 315.4,166.3 317.1,178.8 
			318.8,173.5 320.5,174.9 322.2,184 323.9,175.9 325.6,167.2 327.3,176.4 329,182.6 330.7,170.6 332.4,178.8 334.1,181.2 
			335.8,164.8 337.5,148 339.2,162.4 340.9,151.4 342.6,148 344.3,156.7 346,158.1 347.7,174.4 349.4,168.7 351.1,165.8 
			352.8,166.8 354.5,159.1 356.2,165.3 357.9,179.2 359.6,183.6 361.3,199.9 363,190.3 364.7,187.9 366.4,184.5 368.1,197.5 
			369.8,182.1 371.5,180.2 373.2,192.7 374.9,184.5 376.6,201.8 378.3,193.2 380,168.7 381.7,196 383.4,187.4 385.1,192.7 
			386.8,180.7 388.5,186 390.2,202.8 391.9,186.4 393.6,184.5 395.3,192.2 397,200.4 398.7,206.6 400.4,208.5 402.1,199.9 
			403.8,204.2 405.5,205.6 407.2,205.6 408.9,210.4 410.6,223.4 412.3,216.2 414,228.2 415.7,229.2 417.4,225.8 419.1,235.4 
			420.8,231.1 422.5,241.2 424.2,245.5 425.9,244.5 427.6,247.4 429.3,259.9 431,268 432.7,268 434.4,262.8 436.1,256 437.8,251.7 
			439.5,253.2 441.2,258 442.9,269 444.6,265.6 446.3,266.6 448,280 449.7,283.9 451.4,269 453.1,267.1 454.8,271.4 456.5,275.7 
			458.2,269 459.9,267.1 461.6,257.5 463.3,263.2 465,262.8 466.7,266.1 468.4,277.2 470.1,268.5 471.8,268.5 473.5,258 
			475.2,261.3 476.9,270 478.6,274.3 480.3,277.2 482,278.1 483.7,268 485.4,279.6 487.1,276.7 488.8,277.2 490.5,284.4 492.2,282 
			493.9,280 495.6,284.4 497.3,275.2 499,276.7 500.7,261.3 502.4,256.5 504.1,262.8 505.8,282 507.5,280 509.2,293 510.9,297.8 
			512.6,298.8 514.3,295.9 516,295.4 517.7,297.8 519.4,299.7 521.1,297.8 522.8,299.2 524.5,294.9 526.2,293.5 527.9,288.7 
			529.6,288.7 531.3,286.8 533,294.4 534.7,293 536.4,286.3 538.1,291.6 539.8,288.7 541.5,288.7 543.2,285.3 544.9,288.7 
			546.6,278.6 548.3,279.1 550,274.8 551.7,273.3 553.4,274.8 555.1,266.1 556.8,270.9 558.5,277.6 560.2,286.3 561.9,283.4 
			563.6,285.8 565.3,283.4 567,283.4 568.7,281.5 570.4,288.2 572.1,276.7 573.8,276.2 575.5,271.4 577.2,270.9 578.9,284.4 
			580.6,279.6 582.3,276.2 584,270 585.7,269 587.4,272.4 589.1,266.6 590.8,269 592.5,270 594.2,282 595.9,280.5 597.6,274.8 
			599.3,290.1 601,290.6 602.7,288.2 604.4,283.4 606.1,289.2 607.8,284.8 609.5,286.8 611.2,289.2 612.9,294 614.6,296.4 
			616.3,294 618,291.6 619.7,289.2 621.4,290.6 623.1,294 624.8,287.7 626.5,286.3 628.2,275.2 629.9,275.2 631.6,276.2 
			633.3,270.9 635,280 636.7,283.9 638.4,292.5 640.1,288.7 641.8,294.9 643.5,291.6 645.2,294.4 646.9,300.7 648.6,296.8 
			650.3,294 652,293 653.7,286.8 655.4,291.1 657.1,294.9 658.8,293.5 660.5,292.5 662.2,296.8 663.9,299.7 665.6,300.2 667.3,304 
			669,305 670.7,305 672.4,305 674.1,305 675.8,305 677.5,305 679.2,305 680.9,305 682.6,305 684.3,305 686,305 687.7,305 
			689.4,305 691.1,305 692.8,305 694.5,305 696.2,305 697.9,305 699.6,305 701.3,305 703,305 704.7,305 706.4,305 708.1,305 
			709.8,305 711.5,305 713.2,305 714.9,305 716.6,305 718.3,305 720,305 721.7,305 723.4,305 725.1,305 726.8,305 728.5,305 
			730.2,305 731.9,305 733.6,305 735.3,305 737,305 738.7,305 740.4,305 742.1,305 743.8,305 745.5,305 747.2,305 748.9,305 
			750.6,305 752.3,305 754,305 755.7,305 757.4,305 759.1,305 760.8,305 762.5,305 764.2,305 765.9,305 767.6,305 769.3,305 
			771,305 772.7,305 774.4,305 776.1,305 777.8,305 779.5,305 781.2,305 782.9,305 784.6,305 786.3,305 788,305 789.7,305 
			791.4,305 793.1,305 794.8,305 796.5,305 798.2,305 799.9,305 801.6,305 803.3,305 805,305 806.7,305 808.4,305 810.1,305 
			811.8,305 813.5,305 815.2,305 816.9,305 818.6,305 820.3,305 822,305 823.7,305 825.4,305 827.1,305 828.8,305 830.5,305 
			832.2,305 833.9,305 835.6,305 837.3,305 839,305 840.7,305 842.4,305 844.1,305 845.8,305 847.5,305 849.2,305 850.9,305 
			852.6,305 854.3,305 856,305 857.7,305 859.4,305 861.1,305 862.8,305 864.5,305 866.2,305 867.9,305 869.6,305 871.3,305 
			873,305 874.7,305 876.4,305 878.1,305 879.8,305 881.5,305 883.2,305 884.9,305 886.6,305 888.3,305 		"/>
		<polyline class="st5" points="40,278.6 41.7,285.8 43.4,288.2 45.1,286.3 46.8,283.4 48.5,286.3 50.2,294.9 51.9,286.8 53.6,282 
			55.3,277.2 57,273.8 58.7,263.7 60.4,273.8 62.1,270 63.8,273.8 65.5,282.4 67.2,283.4 68.9,277.2 70.6,284.4 72.3,284.4 
			74,284.8 75.7,284.8 77.4,282.4 79.1,269.5 80.8,258.4 82.5,268.5 84.2,260.8 85.9,256.5 87.6,262.3 89.3,269.5 91,267.1 
			92.7,258 94.4,259.9 96.1,249.8 97.8,253.6 99.5,246.9 101.2,237.8 102.9,235.4 104.6,232 106.3,233.5 108,244.5 109.7,247.4 
			111.4,232.5 113.1,233 114.8,238.3 116.5,251.7 118.2,262.8 119.9,260.8 121.6,256.5 123.3,259.9 125,272.8 126.7,280.5 
			128.4,275.2 130.1,275.7 131.8,274.8 133.5,281 135.2,288.2 136.9,287.2 138.6,289.6 140.3,287.2 142,283.4 143.7,275.2 
			145.4,268.5 147.1,270 148.8,271.4 150.5,282.4 152.2,271.9 153.9,272.4 155.6,275.2 157.3,265.2 159,265.2 160.7,266.1 
			162.4,258 164.1,268.5 165.8,275.7 167.5,255.6 169.2,246 170.9,242.1 172.6,246.4 174.3,240.7 176,242.1 177.7,228.2 
			179.4,215.2 181.1,208.5 182.8,212.8 184.5,205.2 186.2,208 187.9,204.7 189.6,206.6 191.3,220.5 193,211.9 194.7,191.2 
			196.4,194.6 198.1,189.8 199.8,185.5 201.5,185.5 203.2,188.4 204.9,190.8 206.6,174.9 208.3,155.7 210,164.4 211.7,164.4 
			213.4,153.3 215.1,143.7 216.8,151.9 218.5,155.2 220.2,148.5 221.9,142.3 223.6,140.4 225.3,144.7 227,158.6 228.7,156.2 
			230.4,156.2 232.1,142.8 233.8,152.8 235.5,157.6 237.2,164.4 238.9,162 240.6,157.2 242.3,153.8 244,146.1 245.7,135.6 
			247.4,131.2 249.1,141.3 250.8,151.9 252.5,137.5 254.2,135.1 255.9,155.2 257.6,144.7 259.3,153.3 261,165.3 262.7,162 
			264.4,187.9 266.1,190.8 267.8,190.8 269.5,197.5 271.2,188.8 272.9,183.6 274.6,160 276.3,162 278,160 279.7,171.6 281.4,198 
			283.1,183.1 284.8,193.6 286.5,193.6 288.2,195.6 289.9,199.9 291.6,205.2 293.3,184.5 295,183.1 296.7,207.1 298.4,198.4 
			300.1,205.6 301.8,216.7 303.5,200.8 305.2,189.3 306.9,186.9 308.6,193.2 310.3,190.8 312,205.6 313.7,208 315.4,208 
			317.1,198.9 318.8,210 320.5,216.2 322.2,206.1 323.9,223.4 325.6,235.9 327.3,235.9 329,237.8 330.7,239.2 332.4,227.7 
			334.1,208 335.8,215.2 337.5,222 339.2,202.3 340.9,211.4 342.6,221 344.3,216.2 346,215.7 347.7,187.4 349.4,185.5 351.1,201.8 
			352.8,190.3 354.5,190.3 356.2,186.4 357.9,186.4 359.6,184 361.3,179.2 363,179.2 364.7,175.9 366.4,174 368.1,167.7 
			369.8,179.2 371.5,194.1 373.2,186.4 374.9,197 376.6,183.1 378.3,172 380,188.8 381.7,150.9 383.4,152.8 385.1,155.7 
			386.8,165.3 388.5,152.4 390.2,134.6 391.9,148.5 393.6,144.7 395.3,141.8 397,141.3 398.7,147.1 400.4,130.3 402.1,138 
			403.8,128.8 405.5,135.6 407.2,132.2 408.9,125 410.6,108.7 412.3,119.7 414,106.8 415.7,100.5 417.4,104.4 419.1,90 420.8,90.9 
			422.5,90.9 424.2,88.5 425.9,90.9 427.6,83.7 429.3,72.7 431,58.3 432.7,66 434.4,64 436.1,78 437.8,79.9 439.5,77.5 441.2,83.7 
			442.9,75.1 444.6,89.5 446.3,85.2 448,70.8 449.7,55.9 451.4,51.1 453.1,55.4 454.8,54.9 456.5,44.4 458.2,50.1 459.9,46.3 
			461.6,52.5 463.3,46.8 465,47.2 466.7,43.9 468.4,32.8 470.1,41.5 471.8,41.5 473.5,52 475.2,48.7 476.9,40 478.6,35.7 
			480.3,32.8 482,31.9 483.7,42 485.4,30.4 487.1,33.3 488.8,32.8 490.5,25.6 492.2,28 493.9,30 495.6,25.6 497.3,34.8 499,33.3 
			500.7,48.7 502.4,53.5 504.1,47.2 505.8,28 507.5,30 509.2,17 510.9,12.2 512.6,11.2 514.3,14.1 516,14.6 517.7,12.2 519.4,10.3 
			521.1,12.2 522.8,10.8 524.5,15.1 526.2,16.5 527.9,21.3 529.6,21.3 531.3,23.2 533,15.6 534.7,17 536.4,23.7 538.1,18.4 
			539.8,21.3 541.5,21.3 543.2,24.7 544.9,21.3 546.6,31.4 548.3,30.9 550,35.2 551.7,36.7 553.4,35.2 555.1,43.9 556.8,39.1 
			558.5,32.4 560.2,23.7 561.9,26.6 563.6,24.2 565.3,26.6 567,26.6 568.7,28.5 570.4,21.8 572.1,33.3 573.8,33.8 575.5,38.6 
			577.2,39.1 578.9,25.6 580.6,30.4 582.3,33.8 584,40 585.7,41 587.4,37.6 589.1,43.4 590.8,41 592.5,40 594.2,28 595.9,29.5 
			597.6,35.2 599.3,19.9 601,19.4 602.7,21.8 604.4,26.6 606.1,20.8 607.8,25.2 609.5,23.2 611.2,20.8 612.9,16 614.6,13.6 
			616.3,16 618,18.4 619.7,20.8 621.4,19.4 623.1,16 624.8,22.3 626.5,23.7 628.2,34.8 629.9,34.8 631.6,33.8 633.3,39.1 635,30 
			636.7,26.1 638.4,17.5 640.1,21.3 641.8,15.1 643.5,18.4 645.2,15.6 646.9,9.3 648.6,13.2 650.3,16 652,17 653.7,23.2 655.4,18.9 
			657.1,15.1 658.8,16.5 660.5,17.5 662.2,13.2 663.9,10.3 665.6,9.8 667.3,6 669,5 670.7,5 672.4,5 674.1,5 675.8,5 677.5,5 
			679.2,5 680.9,5 682.6,5 684.3,5 686,5 687.7,5 689.4,5 691.1,5 692.8,5 694.5,5 696.2,5 697.9,5 699.6,5 701.3,5 703,5 704.7,5 
			706.4,5 708.1,5 709.8,5 711.5,5 713.2,5 714.9,5 716.6,5 718.3,5 720,5 721.7,5 723.4,5 725.1,5 726.8,5 728.5,5 730.2,5 
			731.9,5 733.6,5 735.3,5 737,5 738.7,5 740.4,5 742.1,5 743.8,5 745.5,5 747.2,5 748.9,5 750.6,5 752.3,5 754,5 755.7,5 757.4,5 
			759.1,5 760.8,5 762.5,5 764.2,5 765.9,5 767.6,5 769.3,5 771,5 772.7,5 774.4,5 776.1,5 777.8,5 779.5,5 781.2,5 782.9,5 
			784.6,5 786.3,5 788,5 789.7,5 791.4,5 793.1,5 794.8,5 796.5,5 798.2,5 799.9,5 801.6,5 803.3,5 805,5 806.7,5 808.4,5 810.1,5 
			811.8,5 813.5,5 815.2,5 816.9,5 818.6,5 820.3,5 822,5 823.7,5 825.4,5 827.1,5 828.8,5 830.5,5 832.2,5 833.9,5 835.6,5 
			837.3,5 839,5 840.7,5 842.4,5 844.1,5 845.8,5 847.5,5 849.2,5 850.9,5 852.6,5 854.3,5 856,5 857.7,5 859.4,5 861.1,5 862.8,5 
			864.5,5 866.2,5 867.9,5 869.6,5 871.3,5 873,5 874.7,5 876.4,5 878.1,5 879.8,5 881.5,5 883.2,5 884.9,5 886.6,5 888.3,5 		"/>
		<polyline class="st6" points="40,278.1 41.7,284.8 43.4,282.4 45.1,286.8 46.8,279.1 48.5,283.4 50.2,270 51.9,271.9 53.6,274.3 
			55.3,275.2 57,279.6 58.7,280.5 60.4,274.8 62.1,275.7 63.8,283.9 65.5,286.8 67.2,292.5 68.9,289.2 70.6,292.5 72.3,293 
			74,295.9 75.7,300.2 77.4,298.3 79.1,295.9 80.8,298.3 82.5,300.7 84.2,303.6 85.9,303.6 87.6,303.1 89.3,301.6 91,297.8 
			92.7,297.3 94.4,296.4 96.1,291.1 97.8,290.1 99.5,292.5 101.2,289.2 102.9,293 104.6,297.3 106.3,297.8 108,291.6 109.7,292 
			111.4,294.4 113.1,291.6 114.8,294.9 116.5,300.2 118.2,303.1 119.9,305 121.6,305 123.3,305 125,305 126.7,305 128.4,305 
			130.1,305 131.8,305 133.5,305 135.2,305 136.9,305 138.6,305 140.3,305 142,305 143.7,305 145.4,305 147.1,305 148.8,305 
			150.5,305 152.2,305 153.9,305 155.6,305 157.3,305 159,305 160.7,305 162.4,305 164.1,305 165.8,305 167.5,305 169.2,305 
			170.9,305 172.6,305 174.3,305 176,305 177.7,305 179.4,305 181.1,305 182.8,305 184.5,305 186.2,305 187.9,305 189.6,305 
			191.3,305 193,305 194.7,305 196.4,305 198.1,305 199.8,305 201.5,305 203.2,305 204.9,305 206.6,305 208.3,305 210,305 
			211.7,305 213.4,305 215.1,305 216.8,305 218.5,305 220.2,305 221.9,305 223.6,305 225.3,305 227,305 228.7,305 230.4,305 
			232.1,305 233.8,305 235.5,305 237.2,305 238.9,305 240.6,305 242.3,305 244,305 245.7,305 247.4,305 249.1,305 250.8,305 
			252.5,305 254.2,305 255.9,305 257.6,305 259.3,305 261,305 262.7,305 264.4,305 266.1,305 267.8,305 269.5,305 271.2,305 
			272.9,305 274.6,305 276.3,305 278,305 279.7,305 281.4,305 283.1,305 284.8,305 286.5,305 288.2,305 289.9,305 291.6,305 
			293.3,305 295,305 296.7,305 298.4,305 300.1,305 301.8,305 303.5,305 305.2,305 306.9,305 308.6,305 310.3,305 312,305 
			313.7,305 315.4,305 317.1,305 318.8,305 320.5,305 322.2,305 323.9,305 325.6,305 327.3,305 329,305 330.7,305 332.4,305 
			334.1,305 335.8,305 337.5,305 339.2,305 340.9,305 342.6,305 344.3,305 346,305 347.7,305 349.4,305 351.1,305 352.8,305 
			354.5,305 356.2,305 357.9,305 359.6,305 361.3,305 363,305 364.7,305 366.4,305 368.1,305 369.8,305 371.5,305 373.2,305 
			374.9,305 376.6,305 378.3,305 380,305 381.7,305 383.4,305 385.1,305 386.8,305 388.5,305 390.2,305 391.9,305 393.6,305 
			395.3,305 397,305 398.7,305 400.4,305 402.1,305 403.8,305 405.5,305 407.2,305 408.9,305 410.6,305 412.3,305 414,305 
			415.7,305 417.4,305 419.1,305 420.8,305 422.5,305 424.2,305 425.9,305 427.6,305 429.3,305 431,305 432.7,305 434.4,305 
			436.1,305 437.8,305 439.5,305 441.2,305 442.9,305 444.6,305 446.3,305 448,305 449.7,305 451.4,305 453.1,305 454.8,305 
			456.5,305 458.2,305 459.9,305 461.6,305 463.3,305 465,305 466.7,305 468.4,305 470.1,305 471.8,305 473.5,305 475.2,305 
			476.9,305 478.6,305 480.3,305 482,305 483.7,305 485.4,305 487.1,305 488.8,305 490.5,305 492.2,305 493.9,305 495.6,305 
			497.3,305 499,305 500.7,305 502.4,305 504.1,305 505.8,305 507.5,305 509.2,305 510.9,305 512.6,305 514.3,305 516,305 
			517.7,305 519.4,305 521.1,305 522.8,305 524.5,305 526.2,305 527.9,305 529.6,305 531.3,305 533,305 534.7,305 536.4,305 
			538.1,305 539.8,305 541.5,305 543.2,305 544.9,305 546.6,305 548.3,305 550,305 551.7,305 553.4,305 555.1,305 556.8,305 
			558.5,305 560.2,305 561.9,305 563.6,305 565.3,305 567,305 568.7,305 570.4,305 572.1,305 573.8,305 575.5,305 577.2,305 
			578.9,305 580.6,305 582.3,305 584,305 585.7,305 587.4,305 589.1,305 590.8,305 592.5,305 594.2,305 595.9,305 597.6,305 
			599.3,305 601,305 602.7,305 604.4,305 606.1,305 607.8,305 609.5,305 611.2,305 612.9,305 614.6,305 616.3,305 618,305 
			619.7,305 621.4,305 623.1,305 624.8,305 626.5,305 628.2,305 629.9,305 631.6,305 633.3,305 635,305 636.7,305 638.4,305 
			640.1,305 641.8,305 643.5,305 645.2,305 646.9,305 648.6,305 650.3,305 652,305 653.7,305 655.4,305 657.1,305 658.8,305 
			660.5,305 662.2,305 663.9,305 665.6,305 667.3,305 669,305 670.7,305 672.4,305 674.1,305 675.8,305 677.5,305 679.2,305 
			680.9,305 682.6,305 684.3,305 686,305 687.7,305 689.4,305 691.1,305 692.8,305 694.5,305 696.2,305 697.9,305 699.6,305 
			701.3,305 703,305 704.7,305 706.4,305 708.1,305 709.8,305 711.5,305 713.2,305 714.9,305 716.6,305 718.3,305 720,305 
			721.7,305 723.4,305 725.1,305 726.8,305 728.5,305 730.2,305 731.9,305 733.6,305 735.3,305 737,305 738.7,305 740.4,305 
			742.1,305 743.8,305 745.5,305 747.2,305 748.9,305 750.6,305 752.3,305 754,305 755.7,305 757.4,305 759.1,305 760.8,305 
			762.5,305 764.2,305 765.9,305 767.6,305 769.3,305 771,305 772.7,305 774.4,305 776.1,305 777.8,305 779.5,305 781.2,305 
			782.9,305 784.6,305 786.3,305 788,305 789.7,305 791.4,305 793.1,305 794.8,305 796.5,305 798.2,305 799.9,305 801.6,305 
			803.3,305 805,305 806.7,305 808.4,305 810.1,305 811.8,305 813.5,305 815.2,305 816.9,305 818.6,305 820.3,305 822,305 
			823.7,305 825.4,305 827.1,305 828.8,305 830.5,305 832.2,305 833.9,305 835.6,305 837.3,305 839,305 840.7,305 842.4,305 
			844.1,305 845.8,305 847.5,305 849.2,305 850.9,305 852.6,305 854.3,305 856,305 857.7,305 859.4,305 861.1,305 862.8,305 
			864.5,305 866.2,305 867.9,305 869.6,305 871.3,305 873,305 874.7,305 876.4,305 878.1,305 879.8,305 881.5,305 883.2,305 
			884.9,305 886.6,305 888.3,305 		"/>
		<polyline class="st7" points="40,272.4 41.7,267.1 43.4,261.8 45.1,272.8 46.8,282.4 48.5,288.7 50.2,294.4 51.9,296.4 
			53.6,291.1 55.3,291.6 57,288.7 58.7,282.4 60.4,285.3 62.1,287.7 63.8,296.4 65.5,294.9 67.2,292.5 68.9,290.6 70.6,292 
			72.3,295.9 74,291.1 75.7,291.6 77.4,294 79.1,295.4 80.8,300.2 82.5,298.3 84.2,300.2 85.9,303.1 87.6,303.6 89.3,303.1 
			91,304.5 92.7,301.2 94.4,300.7 96.1,302.6 97.8,300.7 99.5,303.6 101.2,305 102.9,305 104.6,305 106.3,305 108,305 109.7,305 
			111.4,305 113.1,305 114.8,305 116.5,305 118.2,305 119.9,305 121.6,305 123.3,305 125,305 126.7,305 128.4,305 130.1,305 
			131.8,305 133.5,305 135.2,305 136.9,305 138.6,305 140.3,305 142,305 143.7,305 145.4,305 147.1,305 148.8,305 150.5,305 
			152.2,305 153.9,305 155.6,305 157.3,305 159,305 160.7,305 162.4,305 164.1,305 165.8,305 167.5,305 169.2,305 170.9,305 
			172.6,305 174.3,305 176,305 177.7,305 179.4,305 181.1,305 182.8,305 184.5,305 186.2,305 187.9,305 189.6,305 191.3,305 
			193,305 194.7,305 196.4,305 198.1,305 199.8,305 201.5,305 203.2,305 204.9,305 206.6,305 208.3,305 210,305 211.7,305 
			213.4,305 215.1,305 216.8,305 218.5,305 220.2,305 221.9,305 223.6,305 225.3,305 227,305 228.7,305 230.4,305 232.1,305 
			233.8,305 235.5,305 237.2,305 238.9,305 240.6,305 242.3,305 244,305 245.7,305 247.4,305 249.1,305 250.8,305 252.5,305 
			254.2,305 255.9,305 257.6,305 259.3,305 261,305 262.7,305 264.4,305 266.1,305 267.8,305 269.5,305 271.2,305 272.9,305 
			274.6,305 276.3,305 278,305 279.7,305 281.4,305 283.1,305 284.8,305 286.5,305 288.2,305 289.9,305 291.6,305 293.3,305 
			295,305 296.7,305 298.4,305 300.1,305 301.8,305 303.5,305 305.2,305 306.9,305 308.6,305 310.3,305 312,305 313.7,305 
			315.4,305 317.1,305 318.8,305 320.5,305 322.2,305 323.9,305 325.6,305 327.3,305 329,305 330.7,305 332.4,305 334.1,305 
			335.8,305 337.5,305 339.2,305 340.9,305 342.6,305 344.3,305 346,305 347.7,305 349.4,305 351.1,305 352.8,305 354.5,305 
			356.2,305 357.9,305 359.6,305 361.3,305 363,305 364.7,305 366.4,305 368.1,305 369.8,305 371.5,305 373.2,305 374.9,305 
			376.6,305 378.3,305 380,305 381.7,305 383.4,305 385.1,305 386.8,305 388.5,305 390.2,305 391.9,305 393.6,305 395.3,305 
			397,305 398.7,305 400.4,305 402.1,305 403.8,305 405.5,305 407.2,305 408.9,305 410.6,305 412.3,305 414,305 415.7,305 
			417.4,305 419.1,305 420.8,305 422.5,305 424.2,305 425.9,305 427.6,305 429.3,305 431,305 432.7,305 434.4,305 436.1,305 
			437.8,305 439.5,305 441.2,305 442.9,305 444.6,305 446.3,305 448,305 449.7,305 451.4,305 453.1,305 454.8,305 456.5,305 
			458.2,305 459.9,305 461.6,305 463.3,305 465,305 466.7,305 468.4,305 470.1,305 471.8,305 473.5,305 475.2,305 476.9,305 
			478.6,305 480.3,305 482,305 483.7,305 485.4,305 487.1,305 488.8,305 490.5,305 492.2,305 493.9,305 495.6,305 497.3,305 
			499,305 500.7,305 502.4,305 504.1,305 505.8,305 507.5,305 509.2,305 510.9,305 512.6,305 514.3,305 516,305 517.7,305 
			519.4,305 521.1,305 522.8,305 524.5,305 526.2,305 527.9,305 529.6,305 531.3,305 533,305 534.7,305 536.4,305 538.1,305 
			539.8,305 541.5,305 543.2,305 544.9,305 546.6,305 548.3,305 550,305 551.7,305 553.4,305 555.1,305 556.8,305 558.5,305 
			560.2,305 561.9,305 563.6,305 565.3,305 567,305 568.7,305 570.4,305 572.1,305 573.8,305 575.5,305 577.2,305 578.9,305 
			580.6,305 582.3,305 584,305 585.7,305 587.4,305 589.1,305 590.8,305 592.5,305 594.2,305 595.9,305 597.6,305 599.3,305 
			601,305 602.7,305 604.4,305 606.1,305 607.8,305 609.5,305 611.2,305 612.9,305 614.6,305 616.3,305 618,305 619.7,305 
			621.4,305 623.1,305 624.8,305 626.5,305 628.2,305 629.9,305 631.6,305 633.3,305 635,305 636.7,305 638.4,305 640.1,305 
			641.8,305 643.5,305 645.2,305 646.9,305 648.6,305 650.3,305 652,305 653.7,305 655.4,305 657.1,305 658.8,305 660.5,305 
			662.2,305 663.9,305 665.6,305 667.3,305 669,305 670.7,305 672.4,305 674.1,305 675.8,305 677.5,305 679.2,305 680.9,305 
			682.6,305 684.3,305 686,305 687.7,305 689.4,305 691.1,305 692.8,305 694.5,305 696.2,305 697.9,305 699.6,305 701.3,305 
			703,305 704.7,305 706.4,305 708.1,305 709.8,305 711.5,305 713.2,305 714.9,305 716.6,305 718.3,305 720,305 721.7,305 
			723.4,305 725.1,305 726.8,305 728.5,305 730.2,305 731.9,305 733.6,305 735.3,305 737,305 738.7,305 740.4,305 742.1,305 
			743.8,305 745.5,305 747.2,305 748.9,305 750.6,305 752.3,305 754,305 755.7,305 757.4,305 759.1,305 760.8,305 762.5,305 
			764.2,305 765.9,305 767.6,305 769.3,305 771,305 772.7,305 774.4,305 776.1,305 777.8,305 779.5,305 781.2,305 782.9,305 
			784.6,305 786.3,305 788,305 789.7,305 791.4,305 793.1,305 794.8,305 796.5,305 798.2,305 799.9,305 801.6,305 803.3,305 
			805,305 806.7,305 808.4,305 810.1,305 811.8,305 813.5,305 815.2,305 816.9,305 818.6,305 820.3,305 822,305 823.7,305 
			825.4,305 827.1,305 828.8,305 830.5,305 832.2,305 833.9,305 835.6,305 837.3,305 839,305 840.7,305 842.4,305 844.1,305 
			845.8,305 847.5,305 849.2,305 850.9,305 852.6,305 854.3,305 856,305 857.7,305 859.4,305 861.1,305 862.8,305 864.5,305 
			866.2,305 867.9,305 869.6,305 871.3,305 873,305 874.7,305 876.4,305 878.1,305 879.8,305 881.5,305 883.2,305 884.9,305 
			886.6,305 888.3,305 		"/>
		<polyline class="st8" points="40,277.2 41.7,278.6 43.4,284.8 45.1,279.6 46.8,276.2 48.5,277.6 50.2,276.7 51.9,270.4 
			53.6,274.8 55.3,272.4 57,278.1 58.7,284.8 60.4,265.2 62.1,272.4 63.8,274.3 65.5,278.6 67.2,275.2 68.9,282 70.6,272.8 
			72.3,281 74,285.8 75.7,287.7 77.4,287.2 79.1,289.2 80.8,286.8 82.5,285.8 84.2,303.6 85.9,304 87.6,303.6 89.3,302.6 91,302.6 
			92.7,302.6 94.4,303.1 96.1,302.6 97.8,304 99.5,303.6 101.2,303.6 102.9,304 104.6,304.5 106.3,305 108,305 109.7,305 111.4,305 
			113.1,305 114.8,305 116.5,305 118.2,305 119.9,305 121.6,305 123.3,305 125,305 126.7,305 128.4,305 130.1,305 131.8,305 
			133.5,305 135.2,305 136.9,305 138.6,305 140.3,305 142,305 143.7,305 145.4,305 147.1,305 148.8,305 150.5,305 152.2,305 
			153.9,305 155.6,305 157.3,305 159,305 160.7,305 162.4,305 164.1,305 165.8,305 167.5,305 169.2,305 170.9,305 172.6,305 
			174.3,305 176,305 177.7,305 179.4,305 181.1,305 182.8,305 184.5,305 186.2,305 187.9,305 189.6,305 191.3,305 193,305 
			194.7,305 196.4,305 198.1,305 199.8,305 201.5,305 203.2,305 204.9,305 206.6,305 208.3,305 210,305 211.7,305 213.4,305 
			215.1,305 216.8,305 218.5,305 220.2,305 221.9,305 223.6,305 225.3,305 227,305 228.7,305 230.4,305 232.1,305 233.8,305 
			235.5,305 237.2,305 238.9,305 240.6,305 242.3,305 244,305 245.7,305 247.4,305 249.1,305 250.8,305 252.5,305 254.2,305 
			255.9,305 257.6,305 259.3,305 261,305 262.7,305 264.4,305 266.1,305 267.8,305 269.5,305 271.2,305 272.9,305 274.6,305 
			276.3,305 278,305 279.7,305 281.4,305 283.1,305 284.8,305 286.5,305 288.2,305 289.9,305 291.6,305 293.3,305 295,305 
			296.7,305 298.4,305 300.1,305 301.8,305 303.5,305 305.2,305 306.9,305 308.6,305 310.3,305 312,305 313.7,305 315.4,305 
			317.1,305 318.8,305 320.5,305 322.2,305 323.9,305 325.6,305 327.3,305 329,305 330.7,305 332.4,305 334.1,305 335.8,305 
			337.5,305 339.2,305 340.9,305 342.6,305 344.3,305 346,305 347.7,305 349.4,305 351.1,305 352.8,305 354.5,305 356.2,305 
			357.9,305 359.6,305 361.3,305 363,305 364.7,305 366.4,305 368.1,305 369.8,305 371.5,305 373.2,305 374.9,305 376.6,305 
			378.3,305 380,305 381.7,305 383.4,305 385.1,305 386.8,305 388.5,305 390.2,305 391.9,305 393.6,305 395.3,305 397,305 
			398.7,305 400.4,305 402.1,305 403.8,305 405.5,305 407.2,305 408.9,305 410.6,305 412.3,305 414,305 415.7,305 417.4,305 
			419.1,305 420.8,305 422.5,305 424.2,305 425.9,305 427.6,305 429.3,305 431,305 432.7,305 434.4,305 436.1,305 437.8,305 
			439.5,305 441.2,305 442.9,305 444.6,305 446.3,305 448,305 449.7,305 451.4,305 453.1,305 454.8,305 456.5,305 458.2,305 
			459.9,305 461.6,305 463.3,305 465,305 466.7,305 468.4,305 470.1,305 471.8,305 473.5,305 475.2,305 476.9,305 478.6,305 
			480.3,305 482,305 483.7,305 485.4,305 487.1,305 488.8,305 490.5,305 492.2,305 493.9,305 495.6,305 497.3,305 499,305 
			500.7,305 502.4,305 504.1,305 505.8,305 507.5,305 509.2,305 510.9,305 512.6,305 514.3,305 516,305 517.7,305 519.4,305 
			521.1,305 522.8,305 524.5,305 526.2,305 527.9,305 529.6,305 531.3,305 533,305 534.7,305 536.4,305 538.1,305 539.8,305 
			541.5,305 543.2,305 544.9,305 546.6,305 548.3,305 550,305 551.7,305 553.4,305 555.1,305 556.8,305 558.5,305 560.2,305 
			561.9,305 563.6,305 565.3,305 567,305 568.7,305 570.4,305 572.1,305 573.8,305 575.5,305 577.2,305 578.9,305 580.6,305 
			582.3,305 584,305 585.7,305 587.4,305 589.1,305 590.8,305 592.5,305 594.2,305 595.9,305 597.6,305 599.3,305 601,305 
			602.7,305 604.4,305 606.1,305 607.8,305 609.5,305 611.2,305 612.9,305 614.6,305 616.3,305 618,305 619.7,305 621.4,305 
			623.1,305 624.8,305 626.5,305 628.2,305 629.9,305 631.6,305 633.3,305 635,305 636.7,305 638.4,305 640.1,305 641.8,305 
			643.5,305 645.2,305 646.9,305 648.6,305 650.3,305 		"/>
		<polyline class="st9" points="40,281 41.7,263.7 43.4,263.7 45.1,267.1 46.8,274.3 48.5,272.8 50.2,270.9 51.9,267.1 53.6,280 
			55.3,287.2 57,295.4 58.7,287.7 60.4,284.8 62.1,289.6 63.8,288.7 65.5,280.5 67.2,280.5 68.9,284.8 70.6,284.4 72.3,282.9 
			74,279.6 75.7,276.7 77.4,280 79.1,278.6 80.8,275.2 82.5,265.2 84.2,262.8 85.9,262.8 87.6,266.6 89.3,264.7 91,272.4 
			92.7,269.5 94.4,268.5 96.1,270 97.8,274.3 99.5,271.4 101.2,268 102.9,262.3 104.6,273.3 106.3,270.9 108,269.5 109.7,273.3 
			111.4,278.6 113.1,286.8 114.8,294 116.5,294.4 118.2,294 119.9,293.5 121.6,299.2 123.3,301.6 125,304 126.7,302.6 128.4,299.7 
			130.1,301.6 131.8,299.7 133.5,295.9 135.2,298.8 136.9,303.6 138.6,305 140.3,305 142,305 143.7,305 145.4,305 147.1,305 
			148.8,305 150.5,305 152.2,305 153.9,305 155.6,305 157.3,305 159,305 160.7,305 162.4,305 164.1,305 165.8,305 167.5,305 
			169.2,305 170.9,305 172.6,305 174.3,305 176,305 177.7,305 179.4,305 181.1,305 182.8,305 184.5,305 186.2,305 187.9,305 
			189.6,305 191.3,305 193,305 194.7,305 196.4,305 198.1,305 199.8,305 201.5,305 203.2,305 204.9,305 206.6,305 208.3,305 
			210,305 211.7,305 213.4,305 215.1,305 216.8,305 218.5,305 220.2,305 221.9,305 223.6,305 225.3,305 227,305 228.7,305 
			230.4,305 232.1,305 233.8,305 235.5,305 237.2,305 238.9,305 240.6,305 242.3,305 244,305 245.7,305 247.4,305 249.1,305 
			250.8,305 252.5,305 254.2,305 255.9,305 257.6,305 259.3,305 261,305 262.7,305 264.4,305 266.1,305 267.8,305 269.5,305 
			271.2,305 272.9,305 274.6,305 276.3,305 278,305 279.7,305 281.4,305 283.1,305 284.8,305 286.5,305 288.2,305 289.9,305 
			291.6,305 293.3,305 295,305 296.7,305 298.4,305 300.1,305 301.8,305 303.5,305 305.2,305 306.9,305 308.6,305 310.3,305 
			312,305 313.7,305 315.4,305 317.1,305 318.8,305 320.5,305 322.2,305 323.9,305 325.6,305 327.3,305 329,305 330.7,305 
			332.4,305 334.1,305 335.8,305 337.5,305 339.2,305 340.9,305 342.6,305 344.3,305 346,305 347.7,305 349.4,305 351.1,305 
			352.8,305 354.5,305 356.2,305 357.9,305 359.6,305 361.3,305 363,305 364.7,305 366.4,305 368.1,305 369.8,305 371.5,305 
			373.2,305 374.9,305 376.6,305 378.3,305 380,305 381.7,305 383.4,305 385.1,305 386.8,305 388.5,305 390.2,305 391.9,305 
			393.6,305 395.3,305 397,305 398.7,305 400.4,305 402.1,305 403.8,305 405.5,305 407.2,305 408.9,305 410.6,305 412.3,305 
			414,305 415.7,305 417.4,305 419.1,305 420.8,305 422.5,305 424.2,305 425.9,305 427.6,305 429.3,305 431,305 432.7,305 
			434.4,305 436.1,305 437.8,305 439.5,305 441.2,305 442.9,305 444.6,305 446.3,305 448,305 449.7,305 451.4,305 453.1,305 
			454.8,305 456.5,305 458.2,305 459.9,305 461.6,305 463.3,305 465,305 466.7,305 468.4,305 470.1,305 471.8,305 473.5,305 
			475.2,305 476.9,305 478.6,305 480.3,305 482,305 483.7,305 485.4,305 487.1,305 488.8,305 490.5,305 492.2,305 493.9,305 
			495.6,305 497.3,305 499,305 500.7,305 502.4,305 504.1,305 505.8,305 507.5,305 509.2,305 510.9,305 512.6,305 514.3,305 
			516,305 517.7,305 519.4,305 521.1,305 522.8,305 524.5,305 526.2,305 527.9,305 529.6,305 531.3,305 533,305 534.7,305 
			536.4,305 538.1,305 539.8,305 541.5,305 543.2,305 544.9,305 546.6,305 548.3,305 550,305 551.7,305 553.4,305 555.1,305 
			556.8,305 558.5,305 560.2,305 561.9,305 563.6,305 565.3,305 567,305 568.7,305 570.4,305 572.1,305 573.8,305 575.5,305 
			577.2,305 578.9,305 580.6,305 582.3,305 584,305 585.7,305 587.4,305 589.1,305 590.8,305 592.5,305 594.2,305 595.9,305 
			597.6,305 599.3,305 601,305 602.7,305 604.4,305 606.1,305 607.8,305 609.5,305 611.2,305 612.9,305 614.6,305 616.3,305 
			618,305 619.7,305 621.4,305 623.1,305 624.8,305 626.5,305 628.2,305 629.9,305 631.6,305 633.3,305 635,305 636.7,305 
			638.4,305 640.1,305 641.8,305 643.5,305 645.2,305 646.9,305 648.6,305 650.3,305 652,305 653.7,305 655.4,305 657.1,305 
			658.8,305 660.5,305 662.2,305 663.9,305 665.6,305 667.3,305 669,305 670.7,305 672.4,305 674.1,305 675.8,305 677.5,305 
			679.2,305 680.9,305 682.6,305 684.3,305 686,305 687.7,305 689.4,305 691.1,305 692.8,305 694.5,305 696.2,305 697.9,305 
			699.6,305 701.3,305 703,305 704.7,305 706.4,305 708.1,305 709.8,305 711.5,305 713.2,305 714.9,305 716.6,305 718.3,305 
			720,305 721.7,305 723.4,305 725.1,305 726.8,305 728.5,305 730.2,305 731.9,305 733.6,305 735.3,305 737,305 738.7,305 
			740.4,305 742.1,305 743.8,305 745.5,305 747.2,305 748.9,305 750.6,305 752.3,305 754,305 755.7,305 757.4,305 759.1,305 
			760.8,305 762.5,305 764.2,305 765.9,305 767.6,305 769.3,305 771,305 772.7,305 774.4,305 776.1,305 777.8,305 779.5,305 
			781.2,305 782.9,305 784.6,305 786.3,305 788,305 789.7,305 791.4,305 793.1,305 794.8,305 796.5,305 798.2,305 799.9,305 
			801.6,305 803.3,305 805,305 806.7,305 808.4,305 810.1,305 811.8,305 813.5,305 815.2,305 816.9,305 818.6,305 820.3,305 
			822,305 823.7,305 825.4,305 827.1,305 828.8,305 830.5,305 832.2,305 833.9,305 835.6,305 837.3,305 839,305 840.7,305 
			842.4,305 844.1,305 845.8,305 847.5,305 849.2,305 850.9,305 852.6,305 854.3,305 856,305 857.7,305 859.4,305 861.1,305 
			862.8,305 864.5,305 866.2,305 867.9,305 869.6,305 871.3,305 873,305 874.7,305 876.4,305 878.1,305 879.8,305 881.5,305 
			883.2,305 884.9,305 886.6,305 888.3,305 		"/>
		<polyline class="st10" points="40,271.9 41.7,283.4 43.4,279.1 45.1,279.1 46.8,285.8 48.5,285.3 50.2,277.6 51.9,264.7 
			53.6,264.2 55.3,256.5 57,259.9 58.7,265.2 60.4,269 62.1,282.4 63.8,276.7 65.5,282.4 67.2,276.7 68.9,280.5 70.6,281.5 
			72.3,282.9 74,271.4 75.7,266.6 77.4,282 79.1,281.5 80.8,284.4 82.5,287.7 84.2,293 85.9,294 87.6,296.4 89.3,292.5 91,297.8 
			92.7,292.5 94.4,296.4 96.1,297.3 97.8,295.9 99.5,291.1 101.2,296.4 102.9,298.8 104.6,297.3 106.3,297.8 108,294 109.7,288.7 
			111.4,291.1 113.1,297.3 114.8,294 116.5,289.2 118.2,292.5 119.9,293 121.6,290.1 123.3,294.4 125,293 126.7,293.5 128.4,293 
			130.1,295.9 131.8,302.1 133.5,304.5 135.2,304.5 136.9,303.6 138.6,301.6 140.3,297.3 142,295.4 143.7,295.9 145.4,300.2 
			147.1,301.2 148.8,300.7 150.5,302.6 152.2,300.7 153.9,299.7 155.6,300.7 157.3,303.6 159,303.1 160.7,305 162.4,305 164.1,305 
			165.8,305 167.5,305 169.2,305 170.9,305 172.6,305 174.3,305 176,305 177.7,305 179.4,305 181.1,305 182.8,305 184.5,305 
			186.2,305 187.9,305 189.6,305 191.3,305 193,305 194.7,305 196.4,305 198.1,305 199.8,305 201.5,305 203.2,305 204.9,305 
			206.6,305 208.3,305 210,305 211.7,305 213.4,305 215.1,305 216.8,305 218.5,305 220.2,305 221.9,305 223.6,305 225.3,305 
			227,305 228.7,305 230.4,305 232.1,305 233.8,305 235.5,305 237.2,305 238.9,305 240.6,305 242.3,305 244,305 245.7,305 
			247.4,305 249.1,305 250.8,305 252.5,305 254.2,305 255.9,305 257.6,305 259.3,305 261,305 262.7,305 264.4,305 266.1,305 
			267.8,305 269.5,305 271.2,305 272.9,305 274.6,305 276.3,305 278,305 279.7,305 281.4,305 283.1,305 284.8,305 286.5,305 
			288.2,305 289.9,305 291.6,305 293.3,305 295,305 296.7,305 298.4,305 300.1,305 301.8,305 303.5,305 305.2,305 306.9,305 
			308.6,305 310.3,305 312,305 313.7,305 315.4,305 317.1,305 318.8,305 320.5,305 322.2,305 323.9,305 325.6,305 327.3,305 
			329,305 330.7,305 332.4,305 334.1,305 335.8,305 337.5,305 339.2,305 340.9,305 342.6,305 344.3,305 346,305 347.7,305 
			349.4,305 351.1,305 352.8,305 354.5,305 356.2,305 357.9,305 359.6,305 361.3,305 363,305 364.7,305 366.4,305 368.1,305 
			369.8,305 371.5,305 373.2,305 374.9,305 376.6,305 378.3,305 380,305 381.7,305 383.4,305 385.1,305 386.8,305 388.5,305 
			390.2,305 391.9,305 393.6,305 395.3,305 397,305 398.7,305 400.4,305 402.1,305 403.8,305 405.5,305 407.2,305 408.9,305 
			410.6,305 412.3,305 414,305 415.7,305 417.4,305 419.1,305 420.8,305 422.5,305 424.2,305 425.9,305 427.6,305 429.3,305 
			431,305 432.7,305 434.4,305 436.1,305 437.8,305 439.5,305 441.2,305 442.9,305 444.6,305 446.3,305 448,305 449.7,305 
			451.4,305 453.1,305 454.8,305 456.5,305 458.2,305 459.9,305 461.6,305 463.3,305 465,305 466.7,305 468.4,305 470.1,305 
			471.8,305 473.5,305 475.2,305 476.9,305 478.6,305 480.3,305 482,305 483.7,305 485.4,305 487.1,305 488.8,305 490.5,305 
			492.2,305 493.9,305 495.6,305 497.3,305 499,305 500.7,305 502.4,305 504.1,305 505.8,305 507.5,305 509.2,305 510.9,305 
			512.6,305 514.3,305 516,305 517.7,305 519.4,305 521.1,305 522.8,305 524.5,305 526.2,305 527.9,305 529.6,305 531.3,305 
			533,305 534.7,305 536.4,305 538.1,305 539.8,305 541.5,305 543.2,305 544.9,305 546.6,305 548.3,305 550,305 551.7,305 
			553.4,305 555.1,305 556.8,305 558.5,305 560.2,305 561.9,305 563.6,305 565.3,305 567,305 568.7,305 570.4,305 572.1,305 
			573.8,305 575.5,305 577.2,305 578.9,305 580.6,305 582.3,305 584,305 585.7,305 587.4,305 589.1,305 590.8,305 592.5,305 
			594.2,305 595.9,305 597.6,305 599.3,305 601,305 602.7,305 604.4,305 606.1,305 607.8,305 609.5,305 611.2,305 612.9,305 
			614.6,305 616.3,305 618,305 619.7,305 621.4,305 623.1,305 624.8,305 626.5,305 628.2,305 629.9,305 631.6,305 633.3,305 
			635,305 636.7,305 638.4,305 640.1,305 641.8,305 643.5,305 645.2,305 646.9,305 648.6,305 650.3,305 652,305 653.7,305 
			655.4,305 657.1,305 658.8,305 660.5,305 662.2,305 663.9,305 665.6,305 667.3,305 669,305 670.7,305 672.4,305 674.1,305 
			675.8,305 677.5,305 679.2,305 680.9,305 682.6,305 684.3,305 686,305 687.7,305 689.4,305 691.1,305 692.8,305 694.5,305 
			696.2,305 697.9,305 699.6,305 701.3,305 703,305 704.7,305 706.4,305 708.1,305 709.8,305 711.5,305 713.2,305 714.9,305 
			716.6,305 718.3,305 720,305 721.7,305 723.4,305 725.1,305 726.8,305 728.5,305 730.2,305 731.9,305 733.6,305 735.3,305 
			737,305 738.7,305 740.4,305 742.1,305 743.8,305 745.5,305 747.2,305 748.9,305 750.6,305 752.3,305 754,305 755.7,305 
			757.4,305 759.1,305 760.8,305 762.5,305 764.2,305 765.9,305 767.6,305 769.3,305 771,305 772.7,305 774.4,305 776.1,305 
			777.8,305 779.5,305 781.2,305 782.9,305 784.6,305 786.3,305 788,305 789.7,305 791.4,305 793.1,305 794.8,305 796.5,305 
			798.2,305 799.9,305 801.6,305 803.3,305 805,305 806.7,305 808.4,305 810.1,305 811.8,305 813.5,305 815.2,305 816.9,305 
			818.6,305 820.3,305 822,305 823.7,305 825.4,305 827.1,305 828.8,305 830.5,305 832.2,305 833.9,305 835.6,305 837.3,305 
			839,305 840.7,305 842.4,305 844.1,305 845.8,305 847.5,305 849.2,305 850.9,305 852.6,305 854.3,305 856,305 857.7,305 
			859.4,305 861.1,305 862.8,305 864.5,305 866.2,305 867.9,305 869.6,305 871.3,305 873,305 874.7,305 876.4,305 878.1,305 
			879.8,305 881.5,305 883.2,305 884.9,305 886.6,305 888.3,305 		"/>
		<polyline class="st11" points="40,272.8 41.7,283.9 43.4,285.8 45.1,288.7 46.8,290.6 48.5,286.8 50.2,285.8 51.9,294 53.6,296.8 
			55.3,298.3 57,297.3 58.7,300.2 60.4,302.1 62.1,303.1 63.8,302.6 65.5,305 67.2,305 68.9,305 70.6,305 72.3,305 74,305 75.7,305 
			77.4,305 79.1,305 80.8,305 82.5,305 84.2,305 85.9,305 87.6,305 89.3,305 91,305 92.7,305 94.4,305 96.1,305 97.8,305 99.5,305 
			101.2,305 102.9,305 104.6,305 106.3,305 108,305 109.7,305 111.4,305 113.1,305 114.8,305 116.5,305 118.2,305 119.9,305 
			121.6,305 123.3,305 125,305 126.7,305 128.4,305 130.1,305 131.8,305 133.5,305 135.2,305 136.9,305 138.6,305 140.3,305 
			142,305 143.7,305 145.4,305 147.1,305 148.8,305 150.5,305 152.2,305 153.9,305 155.6,305 157.3,305 159,305 160.7,305 
			162.4,305 164.1,305 165.8,305 167.5,305 169.2,305 170.9,305 172.6,305 174.3,305 176,305 177.7,305 179.4,305 181.1,305 
			182.8,305 184.5,305 186.2,305 187.9,305 189.6,305 191.3,305 193,305 194.7,305 196.4,305 198.1,305 199.8,305 201.5,305 
			203.2,305 204.9,305 206.6,305 208.3,305 210,305 211.7,305 213.4,305 215.1,305 216.8,305 218.5,305 220.2,305 221.9,305 
			223.6,305 225.3,305 227,305 228.7,305 230.4,305 232.1,305 233.8,305 235.5,305 237.2,305 238.9,305 240.6,305 242.3,305 
			244,305 245.7,305 247.4,305 249.1,305 250.8,305 252.5,305 254.2,305 255.9,305 257.6,305 259.3,305 261,305 262.7,305 
			264.4,305 266.1,305 267.8,305 269.5,305 271.2,305 272.9,305 274.6,305 276.3,305 278,305 279.7,305 281.4,305 283.1,305 
			284.8,305 286.5,305 288.2,305 289.9,305 291.6,305 293.3,305 295,305 296.7,305 298.4,305 300.1,305 301.8,305 303.5,305 
			305.2,305 306.9,305 308.6,305 310.3,305 312,305 313.7,305 315.4,305 317.1,305 318.8,305 320.5,305 322.2,305 323.9,305 
			325.6,305 327.3,305 329,305 330.7,305 332.4,305 334.1,305 335.8,305 337.5,305 339.2,305 340.9,305 342.6,305 344.3,305 
			346,305 347.7,305 349.4,305 351.1,305 352.8,305 354.5,305 356.2,305 357.9,305 359.6,305 361.3,305 363,305 364.7,305 
			366.4,305 368.1,305 369.8,305 371.5,305 373.2,305 374.9,305 376.6,305 378.3,305 380,305 381.7,305 383.4,305 385.1,305 
			386.8,305 388.5,305 390.2,305 391.9,305 393.6,305 395.3,305 397,305 398.7,305 400.4,305 402.1,305 403.8,305 405.5,305 
			407.2,305 408.9,305 410.6,305 412.3,305 414,305 415.7,305 417.4,305 419.1,305 420.8,305 422.5,305 424.2,305 425.9,305 
			427.6,305 429.3,305 431,305 432.7,305 434.4,305 436.1,305 437.8,305 439.5,305 441.2,305 442.9,305 444.6,305 446.3,305 
			448,305 449.7,305 451.4,305 453.1,305 454.8,305 456.5,305 458.2,305 459.9,305 461.6,305 463.3,305 465,305 466.7,305 
			468.4,305 470.1,305 471.8,305 473.5,305 475.2,305 476.9,305 478.6,305 480.3,305 482,305 483.7,305 485.4,305 487.1,305 
			488.8,305 490.5,305 492.2,305 493.9,305 495.6,305 497.3,305 499,305 500.7,305 502.4,305 504.1,305 505.8,305 507.5,305 
			509.2,305 510.9,305 512.6,305 514.3,305 516,305 517.7,305 519.4,305 521.1,305 522.8,305 524.5,305 526.2,305 527.9,305 
			529.6,305 531.3,305 533,305 534.7,305 536.4,305 538.1,305 539.8,305 541.5,305 543.2,305 544.9,305 546.6,305 548.3,305 
			550,305 551.7,305 553.4,305 555.1,305 556.8,305 558.5,305 560.2,305 561.9,305 563.6,305 565.3,305 567,305 568.7,305 
			570.4,305 572.1,305 573.8,305 575.5,305 577.2,305 578.9,305 580.6,305 582.3,305 584,305 585.7,305 587.4,305 589.1,305 
			590.8,305 592.5,305 594.2,305 595.9,305 597.6,305 599.3,305 601,305 602.7,305 604.4,305 606.1,305 607.8,305 609.5,305 
			611.2,305 612.9,305 614.6,305 616.3,305 618,305 619.7,305 621.4,305 623.1,305 624.8,305 626.5,305 628.2,305 629.9,305 
			631.6,305 633.3,305 635,305 636.7,305 638.4,305 640.1,305 641.8,305 643.5,305 645.2,305 646.9,305 648.6,305 650.3,305 
			652,305 653.7,305 655.4,305 657.1,305 658.8,305 660.5,305 662.2,305 663.9,305 665.6,305 667.3,305 669,305 670.7,305 
			672.4,305 674.1,305 675.8,305 677.5,305 679.2,305 680.9,305 682.6,305 684.3,305 686,305 687.7,305 689.4,305 691.1,305 
			692.8,305 694.5,305 696.2,305 697.9,305 699.6,305 701.3,305 703,305 704.7,305 706.4,305 708.1,305 709.8,305 711.5,305 
			713.2,305 714.9,305 716.6,305 718.3,305 720,305 721.7,305 723.4,305 725.1,305 726.8,305 728.5,305 730.2,305 731.9,305 
			733.6,305 735.3,305 737,305 738.7,305 740.4,305 742.1,305 743.8,305 745.5,305 747.2,305 748.9,305 750.6,305 752.3,305 
			754,305 755.7,305 757.4,305 759.1,305 760.8,305 762.5,305 764.2,305 765.9,305 767.6,305 769.3,305 771,305 772.7,305 
			774.4,305 776.1,305 777.8,305 779.5,305 781.2,305 782.9,305 784.6,305 786.3,305 788,305 789.7,305 791.4,305 793.1,305 
			794.8,305 796.5,305 798.2,305 799.9,305 801.6,305 803.3,305 805,305 806.7,305 808.4,305 810.1,305 811.8,305 813.5,305 
			815.2,305 816.9,305 818.6,305 820.3,305 822,305 823.7,305 825.4,305 827.1,305 828.8,305 830.5,305 832.2,305 833.9,305 
			835.6,305 837.3,305 839,305 840.7,305 842.4,305 844.1,305 845.8,305 847.5,305 849.2,305 850.9,305 852.6,305 854.3,305 
			856,305 857.7,305 859.4,305 861.1,305 862.8,305 864.5,305 866.2,305 867.9,305 869.6,305 871.3,305 873,305 874.7,305 
			876.4,305 878.1,305 879.8,305 881.5,305 883.2,305 884.9,305 886.6,305 888.3,305 		"/>
	</g>
	<path class="st12" d="M40,5v300h850 M40,305v3 M210,305v3 M380,305v3 M550,305v3 M720,305v3 M889.7,305v3 M40,305h-3 M40,257h-3
		 M40,209h-3 M40,161h-3 M40,113h-3 M40,65h-3 M40,17h-3"/>
	<text transform="matrix(1 0 0 1 36.6344 319.5)" class="st13 st14 st15">0</text>
	<text transform="matrix(1 0 0 1 199.9626 319.5)" class="st13 st14 st15">100</text>
	<text transform="matrix(1 0 0 1 369.9626 319.5)" class="st13 st14 st15">200</text>
	<text transform="matrix(1 0 0 1 539.9626 319.5)" class="st13 st14 st15">300</text>
	<text transform="matrix(1 0 0 1 709.9626 319.5)" class="st13 st14 st15">400</text>
	<text transform="matrix(1 0 0 1 879.9626 319.5)" class="st13 st14 st15">500</text>
	<text transform="matrix(1 0 0 1 28.9001 310)" class="st13 st14 st15">0</text>
	<text transform="matrix(1 0 0 1 15.5563 262)" class="st13 st14 st15">100</text>
	<text transform="matrix(1 0 0 1 15.5563 214)" class="st13 st14 st15">200</text>
	<text transform="matrix(1 0 0 1 15.5563 165.9922)" class="st13 st14 st15">300</text>
	<text transform="matrix(1 0 0 1 15.5563 118)" class="st13 st14 st15">400</text>
	<text transform="matrix(1 0 0 1 15.5563 70)" class="st13 st14 st15">500</text>
	<text transform="matrix(1 0 0 1 15.5563 22)" class="st13 st14 st15">600</text>
	<text transform="matrix(1 0 0 1 417.2829 333)" class="st13 st14 st15">steps (thousands)</text>
	<text transform="matrix(0 -1 1 0 8.9704 206.6953)" class="st13 st14 st15">species abundance</text>
</g>
</svg>
