<svg xmlns="http://www.w3.org/2000/svg" viewBox="0 0 1024 468.9"><defs><style>.cls-1{fill:#f1f1f1;}.cls-2{fill:#cfdbea;}.cls-11,.cls-13,.cls-14,.cls-17,.cls-20,.cls-22,.cls-28,.cls-29,.cls-3,.cls-5,.cls-7,.cls-8,.cls-9{fill:none;}.cls-3{stroke:#114d97;}.cls-11,.cls-17,.cls-20,.cls-22,.cls-25,.cls-28,.cls-29,.cls-3,.cls-5,.cls-8,.cls-9{stroke-linecap:round;}.cls-11,.cls-13,.cls-14,.cls-17,.cls-20,.cls-22,.cls-25,.cls-3,.cls-5,.cls-7,.cls-8{stroke-miterlimit:10;}.cls-11,.cls-20,.cls-22,.cls-3{stroke-width:2px;}.cls-25,.cls-4{fill:#ccc;}.cls-25,.cls-5{stroke:#ccc;}.cls-5,.cls-8{stroke-width:4px;}.cls-6{fill:#c9e7f4;}.cls-14,.cls-7{stroke:#1d9cd3;}.cls-7{stroke-width:2.04px;}.cls-17,.cls-8,.cls-9{stroke:#222;}.cls-8{stroke-dasharray:0.02 7.76;}.cls-28,.cls-29,.cls-9{stroke-linejoin:round;}.cls-17,.cls-9{stroke-width:1.5px;}.cls-10{fill:#fff;}.cls-11,.cls-13{stroke:#666;}.cls-12{fill:#e6e6e6;}.cls-13{stroke-width:1.73px;}.cls-14{stroke-width:1.25px;}.cls-15{fill:#222;}.cls-16{fill:#1d9cd3;}.cls-18{fill:#114d97;}.cls-19{fill:#d6e2fa;}.cls-20{stroke:#326de6;}.cls-21{fill:#fadcd5;}.cls-22{stroke:#e6522c;}.cls-23{fill:#326de6;}.cls-24{fill:#e6522c;}.cls-25{stroke-width:4.04px;}.cls-26{fill:#999;}.cls-27{fill:#009639;}.cls-28,.cls-29{stroke:#fff;}.cls-28{stroke-width:2.99px;}.cls-29{stroke-width:1.99px;}</style></defs><g id="art"><rect class="cls-1" x="-1.35" y="-1.52" width="1026.7" height="471.18"/><rect class="cls-2" x="806.74" y="161.87" width="176.8" height="90.68" rx="5.01"/><rect class="cls-3" x="806.74" y="161.87" width="176.8" height="90.68" rx="5.01"/><path class="cls-4" d="M658.75,410.56a8.37,8.37,0,0,1-8.35,8.34H79.21a8.36,8.36,0,0,1-8.34-8.34V58.34A8.37,8.37,0,0,1,79.21,50H650.4a8.38,8.38,0,0,1,8.35,8.34Z"/><path class="cls-5" d="M658.75,410.56a8.37,8.37,0,0,1-8.35,8.34H79.21a8.36,8.36,0,0,1-8.34-8.34V58.34A8.37,8.37,0,0,1,79.21,50H650.4a8.38,8.38,0,0,1,8.35,8.34Z"/><rect class="cls-6" x="310.47" y="318.69" width="121.36" height="36.13" rx="3.63"/><rect class="cls-7" x="310.47" y="318.69" width="121.36" height="36.13" rx="3.63"/><path class="cls-8" d="M658.75,410.56a8.37,8.37,0,0,1-8.35,8.34H79.21a8.36,8.36,0,0,1-8.34-8.34V58.34A8.37,8.37,0,0,1,79.21,50H650.4a8.38,8.38,0,0,1,8.35,8.34Z"/><line class="cls-9" x1="125" y1="189.84" x2="276.98" y2="189.84"/><line class="cls-9" x1="276.98" y1="189.84" x2="271.04" y2="183.91"/><line class="cls-9" x1="276.98" y1="189.84" x2="271.04" y2="195.77"/><line class="cls-9" x1="252.39" y1="358.01" x2="275.07" y2="358.01"/><line class="cls-9" x1="276.98" y1="358.01" x2="271.04" y2="352.08"/><line class="cls-9" x1="276.98" y1="358.01" x2="271.04" y2="363.94"/><line class="cls-9" x1="534.8" y1="342.07" x2="534.8" y2="284.73"/><line class="cls-9" x1="534.8" y1="282.83" x2="528.87" y2="288.76"/><line class="cls-9" x1="534.8" y1="282.83" x2="540.73" y2="288.76"/><line class="cls-9" x1="794.86" y1="206.39" x2="788.92" y2="200.45"/><line class="cls-9" x1="794.86" y1="206.39" x2="788.92" y2="212.32"/><rect class="cls-10" x="288.38" y="115.34" width="143.45" height="182.1" rx="5.02"/><rect class="cls-11" x="288.38" y="115.34" width="143.45" height="182.1" rx="5.02"/><rect class="cls-12" x="309.64" y="172.04" width="100.94" height="104.14" rx="4.98"/><rect class="cls-13" x="309.64" y="172.04" width="100.94" height="104.14" rx="4.98"/><rect class="cls-6" x="320.26" y="182.66" width="79.69" height="36.13" rx="2.5"/><rect class="cls-14" x="320.26" y="182.66" width="79.69" height="36.13" rx="2.5"/><path class="cls-15" d="M357.38,194.81h3.86a3.53,3.53,0,0,1,0,7.05h-2v4.28h-1.89Zm3.64,1.64h-1.75v3.74H361a1.88,1.88,0,0,0,0-3.74Z"/><path class="cls-15" d="M365.31,202c0-2.31,1.22-4.3,3.55-4.3s3.55,2,3.55,4.3-1.22,4.32-3.55,4.32S365.31,204.34,365.31,202Zm5.35,0c0-1.48-.56-2.8-1.8-2.8s-1.8,1.32-1.8,2.8.56,2.82,1.8,2.82S370.66,203.51,370.66,202Z"/><path class="cls-15" d="M378.71,205.06a2.55,2.55,0,0,1-2.11,1.29c-1.84,0-3-1.67-3-4.3s1.14-4.32,3-4.32a2.41,2.41,0,0,1,2.11,1.31v-4.23h1.7v11.33h-1.7Zm0-4.71a1.93,1.93,0,0,0-1.6-1.12c-1.18,0-1.75,1.22-1.75,2.82s.57,2.8,1.75,2.8a2,2,0,0,0,1.6-1.12Z"/><path class="cls-15" d="M388,197.25l-1.73,1.82-1.11-1.15,3.08-3.11h1.63v11.33H388Z"/><path class="cls-10" d="M324.7,207.64a1.47,1.47,0,0,0,.53.52L336,214.35h0a1.36,1.36,0,0,0,1.42,0l10.73-6.19a1.42,1.42,0,0,0,.71-1.24V194.54h0a1.42,1.42,0,0,0-.71-1.24l-10.73-6.19h0a1.42,1.42,0,0,0-1.42,0h0l-10.73,6.19a1.47,1.47,0,0,0-.53.52,1.33,1.33,0,0,0-.18.72h0v12.38a1.33,1.33,0,0,0,.18.72"/><path class="cls-16" d="M336.67,199.91l-11.44-6.61h0L336,187.11a1.42,1.42,0,0,1,1.42,0l10.73,6.19Z"/><path class="cls-16" d="M336,201.14l-11.44-6.6h0v12.38a1.33,1.33,0,0,0,.18.72,1.47,1.47,0,0,0,.53.52L336,214.35Z"/><path class="cls-16" d="M337.38,201.14l11.44-6.6h0v12.38a1.42,1.42,0,0,1-.71,1.24l-10.73,6.19Z"/><rect class="cls-6" x="320.26" y="229.42" width="79.69" height="36.13" rx="2.5"/><rect class="cls-14" x="320.26" y="229.42" width="79.69" height="36.13" rx="2.5"/><path class="cls-15" d="M357.38,241.56h3.86a3.53,3.53,0,0,1,0,7.06h-2v4.28h-1.89Zm3.64,1.65h-1.75V247H361a1.88,1.88,0,0,0,0-3.74Z"/><path class="cls-15" d="M365.31,248.79c0-2.31,1.22-4.3,3.55-4.3s3.55,2,3.55,4.3-1.22,4.31-3.55,4.31S365.31,251.1,365.31,248.79Zm5.35,0c0-1.48-.56-2.81-1.8-2.81s-1.8,1.33-1.8,2.81.56,2.82,1.8,2.82S370.66,250.27,370.66,248.79Z"/><path class="cls-15" d="M378.71,251.81a2.52,2.52,0,0,1-2.11,1.29c-1.84,0-3-1.66-3-4.3s1.14-4.31,3-4.31a2.41,2.41,0,0,1,2.11,1.31v-4.24h1.7V252.9h-1.7Zm0-4.71a2,2,0,0,0-1.6-1.12c-1.18,0-1.75,1.23-1.75,2.82s.57,2.81,1.75,2.81a2,2,0,0,0,1.6-1.12Z"/><path class="cls-15" d="M385.83,251.37c4-4.13,5-5.23,5-6.68a1.57,1.57,0,0,0-1.63-1.63,2.82,2.82,0,0,0-2.42,1.34l-1.15-1.17a4.23,4.23,0,0,1,3.58-1.84,3.26,3.26,0,0,1,3.54,3.28c0,1.81-1.28,3.37-4.17,6.56h4.22v1.67h-7Z"/><path class="cls-10" d="M324.7,254.4a1.47,1.47,0,0,0,.53.52L336,261.11h0a1.42,1.42,0,0,0,1.42,0l10.73-6.19a1.42,1.42,0,0,0,.71-1.24V241.3h0a1.42,1.42,0,0,0-.71-1.24l-10.73-6.19h0a1.36,1.36,0,0,0-1.42,0h0l-10.73,6.19a1.47,1.47,0,0,0-.53.52,1.33,1.33,0,0,0-.18.72h0v12.38a1.33,1.33,0,0,0,.18.72"/><path class="cls-16" d="M336.67,246.67l-11.44-6.61h0L336,233.87a1.36,1.36,0,0,1,1.42,0l10.73,6.19Z"/><path class="cls-16" d="M336,247.9l-11.44-6.6h0v12.38a1.33,1.33,0,0,0,.18.72,1.47,1.47,0,0,0,.53.52L336,261.11Z"/><path class="cls-16" d="M337.38,247.9l11.44-6.6h0v12.38a1.42,1.42,0,0,1-.71,1.24l-10.73,6.19Z"/><rect class="cls-6" x="299.43" y="329.32" width="121.36" height="36.13" rx="3.63"/><rect class="cls-7" x="299.43" y="329.32" width="121.36" height="36.13" rx="3.63"/><path class="cls-15" d="M315.34,136.59h4c3.58,0,5.62,2.8,5.62,6.68s-2,6.66-5.62,6.66h-4Zm4,11.38c2.18,0,3.34-2,3.34-4.7s-1.12-4.74-3.34-4.74h-1.76V148Z"/><path class="cls-15" d="M330.46,140c2.62,0,4,2.22,4,5.14v.58h-6.14c.08,1.58,1,2.78,2.52,2.78a3,3,0,0,0,2.18-1l1,1.2a4.42,4.42,0,0,1-3.34,1.48c-2.66,0-4.34-2.08-4.34-5.08C326.32,142.29,327.88,140,330.46,140Zm-2.14,4.3h4.22c0-1.2-.56-2.68-2.1-2.68S328.38,143.17,328.32,144.33Z"/><path class="cls-15" d="M336.18,153.61V140.27h2v1.28a2.91,2.91,0,0,1,2.48-1.52c2.18,0,3.52,1.94,3.52,5.06s-1.34,5.08-3.52,5.08a2.82,2.82,0,0,1-2.48-1.54v5Zm3.88-11.82a2.23,2.23,0,0,0-1.88,1.32v4a2.29,2.29,0,0,0,1.88,1.34c1.38,0,2.06-1.46,2.06-3.32S341.44,141.79,340.06,141.79Z"/><path class="cls-15" d="M345.94,136.59h2v13.34h-2Z"/><path class="cls-15" d="M349.72,145.09c0-2.72,1.44-5.06,4.18-5.06s4.18,2.34,4.18,5.06-1.44,5.08-4.18,5.08S349.72,147.81,349.72,145.09Zm6.3,0c0-1.74-.66-3.3-2.12-3.3s-2.12,1.56-2.12,3.3.66,3.32,2.12,3.32S356,146.83,356,145.09Z"/><path class="cls-15" d="M360.46,152.09a1,1,0,0,0,1.1-.8l.4-1.16-3.24-9.86h2.12l2.14,7.26,2.16-7.26h2.12l-3.82,11.48a2.65,2.65,0,0,1-2.84,2.1,4.69,4.69,0,0,1-1.08-.14l.3-1.76A1.48,1.48,0,0,0,360.46,152.09Z"/><path class="cls-15" d="M378.44,143.21c0-.9-.36-1.42-1.2-1.42a2.31,2.31,0,0,0-1.84,1.34v6.8h-2v-6.72c0-.88-.36-1.42-1.2-1.42a2.34,2.34,0,0,0-1.84,1.34v6.8h-2v-9.66h2v1.3A3.35,3.35,0,0,1,373,140a2.09,2.09,0,0,1,2.26,1.7,3.37,3.37,0,0,1,2.78-1.7c1.46,0,2.36.78,2.36,2.54v7.36h-2Z"/><path class="cls-15" d="M386.36,140c2.62,0,4,2.22,4,5.14v.58h-6.14c.08,1.58,1,2.78,2.52,2.78a3,3,0,0,0,2.18-1l1,1.2a4.42,4.42,0,0,1-3.34,1.48c-2.66,0-4.34-2.08-4.34-5.08C382.22,142.29,383.78,140,386.36,140Zm-2.14,4.3h4.22c0-1.2-.56-2.68-2.1-2.68S384.28,143.17,384.22,144.33Z"/><path class="cls-15" d="M397.42,143.35c0-1.14-.52-1.56-1.38-1.56a2.39,2.39,0,0,0-2,1.34v6.8h-2v-9.66h2v1.3a3.55,3.55,0,0,1,2.8-1.54,2.3,2.3,0,0,1,2.54,2.62v7.28h-2Z"/><path class="cls-15" d="M402,147.77V142h-1.26v-1.74H402v-2.64h2v2.64h1.6V142H404v5.34c0,.66.22,1.06.74,1.06a1,1,0,0,0,.76-.32l.48,1.5a2.36,2.36,0,0,1-1.74.58C402.76,150.17,402,149.35,402,147.77Z"/><rect class="cls-2" x="480.24" y="143.26" width="110.24" height="127.04" rx="5.02"/><rect class="cls-3" x="480.24" y="143.26" width="110.24" height="127.04" rx="5.02"/><path class="cls-15" d="M515.26,244.65a4.26,4.26,0,0,0,3.18,1.44c1.38,0,2.08-.82,2.08-1.76,0-1.2-1.12-1.72-2.4-2.3-1.66-.72-3.58-1.54-3.58-4,0-2.08,1.62-3.72,4.14-3.72a5.42,5.42,0,0,1,3.84,1.44l-1.08,1.68a3.91,3.91,0,0,0-2.82-1.14,1.63,1.63,0,0,0-1.82,1.62c0,1,1.06,1.5,2.3,2.06,1.7.76,3.68,1.64,3.68,4.22,0,2.18-1.48,3.92-4.34,3.92a5.67,5.67,0,0,1-4.3-1.7Z"/><path class="cls-15" d="M528.16,237.93c2.62,0,4,2.22,4,5.14v.58H526c.08,1.58,1,2.78,2.52,2.78a3,3,0,0,0,2.18-1l1,1.2a4.42,4.42,0,0,1-3.34,1.48c-2.66,0-4.34-2.08-4.34-5.08C524,240.19,525.58,237.93,528.16,237.93Zm-2.14,4.3h4.22c0-1.2-.56-2.68-2.1-2.68S526.08,241.07,526,242.23Z"/><path class="cls-15" d="M533.88,238.17h2v1.42a3.23,3.23,0,0,1,2.66-1.64v2a2.18,2.18,0,0,0-.52-.06,2.71,2.71,0,0,0-2.14,1.34v6.62h-2Z"/><path class="cls-15" d="M538.8,238.17h2.12l2.14,7.28,2.16-7.28h2.12l-3.2,9.66H542Z"/><path class="cls-15" d="M548,243c0-2.72,1.44-5.06,4.18-5.06s4.18,2.34,4.18,5.06-1.44,5.08-4.18,5.08S548,245.71,548,243Zm6.3,0c0-1.74-.66-3.3-2.12-3.3S550,241.25,550,243s.66,3.32,2.12,3.32S554.26,244.73,554.26,243Z"/><rect class="cls-6" x="288.38" y="339.94" width="121.36" height="36.13" rx="3.63"/><rect class="cls-7" x="288.38" y="339.94" width="121.36" height="36.13" rx="3.63"/><path class="cls-15" d="M327.41,353.73h-2.6v-1.65h7.07v1.65h-2.6v9.69h-1.87Z"/><path class="cls-15" d="M336.89,362.33a3,3,0,0,1-2.39,1.3,1.93,1.93,0,0,1-2.14-2.21v-6.21h1.7v5.61c0,.95.44,1.31,1.17,1.31a2,2,0,0,0,1.66-1.12v-5.8h1.7v8.21h-1.7Z"/><path class="cls-15" d="M345.14,357.83c0-1-.44-1.33-1.17-1.33a2,2,0,0,0-1.67,1.14v5.78h-1.7v-8.21h1.7v1.11a3,3,0,0,1,2.38-1.31,2,2,0,0,1,2.16,2.22v6.19h-1.7Z"/><path class="cls-15" d="M348.63,352.8a1.07,1.07,0,0,1,1.07-1.07,1.06,1.06,0,0,1,0,2.12A1.07,1.07,0,0,1,348.63,352.8Zm.22,2.41h1.7v8.21h-1.7Z"/><path class="cls-15" d="M357.09,357.83c0-1-.44-1.33-1.17-1.33a2,2,0,0,0-1.67,1.14v5.78h-1.69v-8.21h1.69v1.11a3,3,0,0,1,2.38-1.31,2,2,0,0,1,2.16,2.22v6.19h-1.7Z"/><path class="cls-15" d="M361.43,364.41a2.78,2.78,0,0,0,2.13.92,1.83,1.83,0,0,0,1.93-2.06V362.1a2.53,2.53,0,0,1-2.1,1.34c-1.84,0-3-1.58-3-4.22s1.14-4.21,3-4.21a2.42,2.42,0,0,1,2.1,1.31v-1.11h1.69v7.92c0,2.84-1.77,3.62-3.54,3.62a4,4,0,0,1-2.91-1Zm4.06-6.79a1.93,1.93,0,0,0-1.59-1.12c-1.18,0-1.76,1.14-1.76,2.72s.58,2.71,1.76,2.71a1.92,1.92,0,0,0,1.59-1.13Z"/><path class="cls-15" d="M372.87,352.08h3.86a3.53,3.53,0,0,1,0,7.06h-2v4.28h-1.89Zm3.64,1.65h-1.75v3.74h1.75a1.88,1.88,0,0,0,0-3.74Z"/><path class="cls-15" d="M380.8,359.31c0-2.31,1.22-4.3,3.55-4.3s3.55,2,3.55,4.3-1.22,4.32-3.55,4.32S380.8,361.62,380.8,359.31Zm5.35,0c0-1.48-.56-2.81-1.8-2.81s-1.8,1.33-1.8,2.81.56,2.82,1.8,2.82S386.15,360.79,386.15,359.31Z"/><path class="cls-15" d="M394.19,362.33a2.51,2.51,0,0,1-2.1,1.3c-1.84,0-3-1.67-3-4.31s1.14-4.31,3-4.31a2.39,2.39,0,0,1,2.1,1.31v-4.24h1.7v11.34h-1.7Zm0-4.71a1.92,1.92,0,0,0-1.59-1.12c-1.18,0-1.75,1.23-1.75,2.82s.57,2.81,1.75,2.81a1.92,1.92,0,0,0,1.59-1.12Z"/><path class="cls-10" d="M292.82,364.92a1.47,1.47,0,0,0,.53.52l10.72,6.19h0a1.39,1.39,0,0,0,.71.19,1.42,1.42,0,0,0,.71-.19l10.73-6.19a1.42,1.42,0,0,0,.71-1.24V351.82h0a1.42,1.42,0,0,0-.71-1.24l-10.73-6.19h0a1.33,1.33,0,0,0-.71-.2,1.31,1.31,0,0,0-.71.2h0l-10.73,6.19a1.47,1.47,0,0,0-.53.52,1.33,1.33,0,0,0-.18.72h0V364.2a1.44,1.44,0,0,0,.19.72"/><path class="cls-16" d="M304.79,357.19l-11.44-6.61h0l10.73-6.19a1.31,1.31,0,0,1,.71-.2,1.33,1.33,0,0,1,.71.2l10.73,6.19Z"/><path class="cls-16" d="M304.07,358.42l-11.44-6.6h0V364.2a1.44,1.44,0,0,0,.19.72,1.47,1.47,0,0,0,.53.52l10.72,6.19Z"/><path class="cls-16" d="M305.5,358.42l11.44-6.6h0V364.2a1.42,1.42,0,0,1-.71,1.24l-10.73,6.19Z"/><line class="cls-17" x1="783.08" y1="398.85" x2="234.15" y2="398.85"/><line class="cls-9" x1="125.84" y1="207.8" x2="219.44" y2="207.8"/><line class="cls-9" x1="125.84" y1="224.97" x2="207.59" y2="224.97"/><path class="cls-17" d="M219.44,207.8a16,16,0,0,1,15.95,15.94"/><path class="cls-17" d="M251.33,358a15.94,15.94,0,0,1-15.94-15.94"/><line class="cls-9" x1="235.39" y1="223.74" x2="235.39" y2="342.48"/><line class="cls-17" x1="218.21" y1="235.6" x2="218.21" y2="381.39"/><path class="cls-17" d="M234.15,398.85a15.94,15.94,0,0,1-15.94-15.94"/><path class="cls-18" d="M561,184.61c-.18-.68-.39-1.34-.63-2h0a14.45,14.45,0,0,0-1.49-3.44h0a33,33,0,0,0-2.18-3.47,26.27,26.27,0,0,0-3.91-4.25,27.31,27.31,0,0,0-5.38-3.63,5.76,5.76,0,0,0-3.09-.9,4.65,4.65,0,0,0-4.28,3.9,3.85,3.85,0,0,0,.06,1.72,5.09,5.09,0,0,0,1,1.66h0l.53.46h0l.1.09.6.37s8,4.22,10.18,11.12a15.73,15.73,0,0,1,.38,1.68v.14h0a17.64,17.64,0,0,1,.3,4.7,5.43,5.43,0,0,1-.12,1.2v.27a16.57,16.57,0,0,1-.41,2.1,17.8,17.8,0,0,1-14.94,13.19,17,17,0,0,1-13-3.61,19.19,19.19,0,0,1-3.48-3.61,23.81,23.81,0,0,1-1.53-2.4,1.2,1.2,0,0,0-1.6-.46,1.23,1.23,0,0,0-.61,1.55,3.68,3.68,0,0,0,.31.63,26.66,26.66,0,0,0,3.06,4.12,1,1,0,0,1,0,1.51,1.07,1.07,0,0,1-1.52-.12,12.78,12.78,0,0,1-.91-1,28.65,28.65,0,0,1-4-6.81,15.36,15.36,0,0,1-1.09-4.17,19.28,19.28,0,0,1-.31-4.42c.05-.59,0-.9.09-1.37l0-.17a1.1,1.1,0,0,1,0-.18c0-.14,0-.29,0-.44a31.29,31.29,0,0,1,1.09-4.69,2,2,0,0,0-1.32-2.57,2.07,2.07,0,0,0-2.61,1.2,17.67,17.67,0,0,0-.92,2.92,25.11,25.11,0,0,0-.63,4.33,26.94,26.94,0,0,0,1.07,9.49,30.54,30.54,0,0,0,2.83,6.37c.45.63.86,1.27,1.33,1.88a28.46,28.46,0,0,0,5.88,5.77,24.37,24.37,0,0,0,5,2.77,26.59,26.59,0,0,0,26.23-3.08,28.92,28.92,0,0,0,4.77-4.48l.19-.24a.29.29,0,0,1,.16-.2.33.33,0,0,1,.18-.22c0-.14.14-.22.23-.33l.13-.16.37-.52a.32.32,0,0,1,.15-.21l.21-.34.16-.22.19-.31a.43.43,0,0,1,.18-.28c.26-.47.55-.94.79-1.42a27.14,27.14,0,0,0,2.81-8.73A26.45,26.45,0,0,0,561,184.61Z"/><polygon class="cls-18" points="556.26 208.01 556.26 208.01 556.26 208.02 556.26 208.01"/><path class="cls-18" d="M521.58,176.59h0a9.52,9.52,0,0,0-1.63,1.72h0l-.26.32A20.07,20.07,0,0,0,515.61,195a1.53,1.53,0,0,0,2.09,1.14,1.62,1.62,0,0,0,.92-2,12.5,12.5,0,0,1-.16-1.73,16.68,16.68,0,0,1,.31-3.86,30.48,30.48,0,0,1,.8-3.09,14.69,14.69,0,0,1,1.59-3.23,16.41,16.41,0,0,1,2.92-3.56l1.83-1.53a19.59,19.59,0,0,1,7.23-3.15,4.54,4.54,0,0,0,1.29-.47,1.25,1.25,0,0,0,.39-1.84A1.74,1.74,0,0,0,533,171a22.94,22.94,0,0,0-6.74,2.28A20.92,20.92,0,0,0,521.58,176.59Z"/><path class="cls-18" d="M514.58,179.82a2.11,2.11,0,0,0,2.3-.89,20.05,20.05,0,0,1,2-2.67,22.33,22.33,0,0,1,3.17-3.13,2.1,2.1,0,0,0,.71-2.25,1.91,1.91,0,0,0-3-1,17.17,17.17,0,0,0-4.22,3.75c-.78.94-1.48,1.94-2.2,2.92A2.62,2.62,0,0,0,513,178,2.18,2.18,0,0,0,514.58,179.82Z"/><path class="cls-18" d="M523.86,183.2a3.18,3.18,0,0,0-.43.84,1,1,0,0,0,.67,1.26,1.13,1.13,0,0,0,1.47-.56,12.73,12.73,0,0,1,3.14-3.32,1.16,1.16,0,0,0,.29-1.75l-.09-.09a1.32,1.32,0,0,0-.88-.25h0a1,1,0,0,0-.28.1h0a4,4,0,0,0-1,.64A16.29,16.29,0,0,0,523.86,183.2Z"/><path class="cls-18" d="M526.45,170.6a2.09,2.09,0,1,0-2.09-2.09A2.06,2.06,0,0,0,526.45,170.6Z"/><path class="cls-18" d="M521.48,187.89l-.06.24h0v0q-.09.4-.15.81a13.07,13.07,0,0,0-.24,2.5,17.54,17.54,0,0,0,1.27,6.28,15.64,15.64,0,0,0,2,3.45,14.75,14.75,0,0,0,2.2,2.27,15.39,15.39,0,0,0,4.33,2.64,1.14,1.14,0,0,0,.87.06,1.1,1.1,0,0,0,.75-1,1.07,1.07,0,0,0-.69-1.09,13.47,13.47,0,0,1-2.09-1.11,14.24,14.24,0,0,1-4.69-5.18,12.74,12.74,0,0,1-1.51-7.63c.07-.66.28-1.29.3-1.94a1,1,0,0,0-.83-1.11A1.18,1.18,0,0,0,521.48,187.89Z"/><path class="cls-18" d="M533.93,205.62a1.15,1.15,0,0,0,1.12,1.15,1.12,1.12,0,1,0,0-2.24A1.15,1.15,0,0,0,533.93,205.62Z"/><line class="cls-9" x1="602.73" y1="234.74" x2="700.96" y2="234.74"/><line class="cls-9" x1="722.21" y1="325.27" x2="794.2" y2="325.27"/><line class="cls-9" x1="794.86" y1="325.27" x2="788.92" y2="319.34"/><line class="cls-9" x1="794.86" y1="325.27" x2="788.92" y2="331.2"/><path class="cls-17" d="M722.21,325.27a10.62,10.62,0,0,1-10.62-10.63"/><path class="cls-17" d="M701,234.74a10.62,10.62,0,0,1,10.63,10.62"/><line class="cls-17" x1="711.59" y1="314.64" x2="711.59" y2="245.36"/><line class="cls-9" x1="602.73" y1="178.78" x2="700.96" y2="178.78"/><line class="cls-9" x1="722.21" y1="88.24" x2="794.35" y2="88.24"/><line class="cls-9" x1="794.86" y1="88.24" x2="788.92" y2="94.18"/><line class="cls-9" x1="794.86" y1="88.24" x2="788.92" y2="82.31"/><path class="cls-17" d="M722.21,88.24a10.62,10.62,0,0,0-10.62,10.63"/><path class="cls-17" d="M701,178.78a10.63,10.63,0,0,0,10.63-10.63"/><line class="cls-17" x1="711.59" y1="98.87" x2="711.59" y2="168.15"/><line class="cls-9" x1="602.73" y1="206.45" x2="794.06" y2="206.45"/><line class="cls-9" x1="439.4" y1="358.01" x2="519.07" y2="358.01"/><path class="cls-17" d="M534.8,342.07A15.94,15.94,0,0,1,518.86,358"/><rect class="cls-19" x="806.74" y="48.68" width="176.8" height="79.7" rx="5.08"/><rect class="cls-20" x="806.74" y="48.68" width="176.8" height="79.7" rx="5.08"/><rect class="cls-21" x="806.74" y="285.42" width="176.8" height="79.7" rx="5.01"/><rect class="cls-22" x="806.74" y="285.42" width="176.8" height="79.7" rx="5.01"/><path class="cls-23" d="M833.33,59.18l-3.47-15.09a2.71,2.71,0,0,0-1.44-1.8l-14.06-6.7a2.82,2.82,0,0,0-1.14-.25,3.28,3.28,0,0,0-1.16.23L798,42.29a2.64,2.64,0,0,0-1.44,1.8l-3.48,15.09a2.82,2.82,0,0,0,.53,2.28l9.72,12.08a2.65,2.65,0,0,0,2.09,1H821a2.63,2.63,0,0,0,2.08-1l9.73-12.08A2.61,2.61,0,0,0,833.33,59.18Z"/><path class="cls-10" d="M827.31,58h0s-.06,0-.06,0l-.16,0a3.74,3.74,0,0,0-.53-.06,1.42,1.42,0,0,1-.28,0h0a8.51,8.51,0,0,1-1.5-.25.55.55,0,0,1-.3-.31s0,0,0-.06h0l-.36-.11a11,11,0,0,0-.2-3.91,11.31,11.31,0,0,0-1.55-3.64l.28-.25v-.06a.63.63,0,0,1,.13-.42,9.28,9.28,0,0,1,1.25-.86h0a2,2,0,0,0,.25-.14,3.87,3.87,0,0,0,.48-.27,1.14,1.14,0,0,1,.14-.11s.05,0,.05-.06h0a.94.94,0,0,0,.2-1.25.81.81,0,0,0-.64-.31,1,1,0,0,0-.61.23h0l-.06,0c-.06,0-.08.09-.14.11a4.26,4.26,0,0,0-.36.39,1.75,1.75,0,0,1-.19.2h0a7.08,7.08,0,0,1-1.12,1,.46.46,0,0,1-.25.08.3.3,0,0,1-.16,0h-.06l-.33.22A14,14,0,0,0,820,47a11.1,11.1,0,0,0-5.81-2.31l0-.36-.06,0a.64.64,0,0,1-.22-.36,10.07,10.07,0,0,1,.08-1.5v0a.88.88,0,0,1,.06-.28c0-.17.05-.33.08-.53v-.25h0a.89.89,0,0,0-.86-.91.92.92,0,0,0-.61.27.87.87,0,0,0-.25.64h0v.22a1.74,1.74,0,0,0,.08.53c0,.09,0,.17.06.28v0a7.2,7.2,0,0,1,.08,1.5.6.6,0,0,1-.22.36l-.06.05h0l0,.37a12.92,12.92,0,0,0-1.5.22,10.65,10.65,0,0,0-5.5,3.11l-.28-.2H805l-.16,0a.46.46,0,0,1-.25-.08,6.91,6.91,0,0,1-1.12-1h0a1.13,1.13,0,0,0-.19-.19,4.26,4.26,0,0,0-.36-.39l-.14-.11s-.06,0-.06-.06h0a.93.93,0,0,0-.61-.22.8.8,0,0,0-.64.3.93.93,0,0,0,.2,1.25h0s0,0,.05,0,.09.09.14.11a4,4,0,0,0,.48.28,1.28,1.28,0,0,1,.25.14h0a9.28,9.28,0,0,1,1.25.86.54.54,0,0,1,.13.42v0h0l.28.25a1.42,1.42,0,0,0-.14.23A10.8,10.8,0,0,0,802.53,57l-.36.11s0,0,0,.06a.64.64,0,0,1-.31.3,6.49,6.49,0,0,1-1.5.25h0a.86.86,0,0,0-.28,0,3.44,3.44,0,0,0-.53.06l-.17,0a.1.1,0,0,0-.08,0h0a.9.9,0,0,0-.72,1,.85.85,0,0,0,.89.64.56.56,0,0,0,.22,0h0s.05,0,.05,0,.12,0,.17,0a2.47,2.47,0,0,0,.5-.19l.25-.11h0a6.86,6.86,0,0,1,1.44-.42h.06a.63.63,0,0,1,.36.14s0,0,.06,0h0l.38-.06a11.07,11.07,0,0,0,3.64,5.23,11.91,11.91,0,0,0,1.2.8l-.17.36s0,0,0,.06a.57.57,0,0,1,.05.44,6.93,6.93,0,0,1-.72,1.31v0c-.05.08-.11.13-.16.22a4.91,4.91,0,0,0-.31.44.47.47,0,0,0-.08.14.1.1,0,0,1,0,.06h0a.87.87,0,0,0,.36,1.19.67.67,0,0,0,.33.08,1,1,0,0,0,.84-.52h0a.13.13,0,0,1,0-.06.85.85,0,0,1,.09-.14,4.08,4.08,0,0,0,.16-.5l.09-.25h0a6.46,6.46,0,0,1,.58-1.39.79.79,0,0,1,.36-.25.07.07,0,0,0,.06,0h0l.19-.37a10.7,10.7,0,0,0,3.89.73,10.33,10.33,0,0,0,2.42-.28,11.38,11.38,0,0,0,1.44-.42l.17.31s0,0,.05,0a.51.51,0,0,1,.37.25,10.25,10.25,0,0,1,.58,1.38v0l.08.25a4.2,4.2,0,0,0,.17.5l.08.14a.1.1,0,0,0,0,.06h0a.94.94,0,0,0,.83.52.71.71,0,0,0,.34-.08.82.82,0,0,0,.41-.5,1,1,0,0,0-.05-.69h0s0,0,0-.06l-.08-.14a3.47,3.47,0,0,0-.31-.44,1.84,1.84,0,0,0-.17-.22v0a6.41,6.41,0,0,1-.72-1.31.79.79,0,0,1,0-.44s0,0,0-.06h0l-.14-.33a10.92,10.92,0,0,0,4.83-6.08l.34,0s0,0,.05,0a.78.78,0,0,1,.36-.14h.06a7.52,7.52,0,0,1,1.44.42h0l.25.11a2.75,2.75,0,0,0,.5.2l.17,0a.1.1,0,0,1,.08,0h0a.56.56,0,0,0,.22,0,.93.93,0,0,0,.89-.64,1.07,1.07,0,0,0-.8-.92Zm-12.87-1.36-1.22.59L812,56.62l-.31-1.3.84-1.06h1.36l.83,1.06-.28,1.3Zm7.25-2.89a8.67,8.67,0,0,1,.2,2.81l-4.25-1.22a.76.76,0,0,1-.53-.89.68.68,0,0,1,.17-.31l3.36-3a8.78,8.78,0,0,1,1.05,2.63Zm-2.38-4.3L815.67,52a.75.75,0,0,1-1-.16.61.61,0,0,1-.13-.31L814.31,47a8.42,8.42,0,0,1,5,2.42Zm-8.06-2.28.89-.17-.25,4.45a.76.76,0,0,1-.75.72.7.7,0,0,1-.33-.08l-3.7-2.64a8.48,8.48,0,0,1,4.14-2.28Zm-5.47,4,3.3,2.94a.74.74,0,0,1,.09,1,.6.6,0,0,1-.34.22l-4.3,1.25a8.89,8.89,0,0,1,1.25-5.44ZM805,58.62l4.41-.75a.76.76,0,0,1,.78.59.73.73,0,0,1,0,.44h0L808.5,63A8.66,8.66,0,0,1,805,58.62Zm10.14,5.53a9,9,0,0,1-1.95.22,9.32,9.32,0,0,1-2.8-.44l2.19-4a.74.74,0,0,1,.89-.2,1.24,1.24,0,0,1,.33.31h0L816,63.93c-.25.08-.53.14-.8.22Zm5.41-3.86A8.76,8.76,0,0,1,817.92,63l-1.75-4.19a.73.73,0,0,1,.39-.86.81.81,0,0,1,.38-.08l4.45.75a5.72,5.72,0,0,1-.81,1.69Z"/><circle class="cls-10" cx="813.16" cy="291.71" r="18.54"/><path class="cls-24" d="M813.16,271.52a20.2,20.2,0,1,0,20.19,20.19A20.19,20.19,0,0,0,813.16,271.52Zm0,37.79c-3.17,0-5.74-2.12-5.74-4.73h11.49C818.91,307.19,816.34,309.31,813.16,309.31Zm9.49-6.3h-19v-3.44h19V303Zm-.07-5.21H803.73a2,2,0,0,1-.19-.22,13.74,13.74,0,0,1-2.84-4.84s2.35.48,4,.86c0,0,.86.2,2.12.43a7.9,7.9,0,0,1-1.93-5.07c0-4,3.1-7.58,2-10.44,1.09.09,2.26,2.3,2.34,5.76a12.38,12.38,0,0,0,1.64-6.32c0-1.86,1.23-4,2.45-4.09-1.09,1.8.28,3.34,1.5,7.16.46,1.44.4,3.85.76,5.39.11-3.19.66-7.83,2.68-9.43-.89,2,.13,4.54.83,5.76a10.89,10.89,0,0,1,1.81,6.25,7.81,7.81,0,0,1-1.86,5c1.33-.25,2.25-.47,2.25-.47l4.33-.85A12.27,12.27,0,0,1,822.58,297.8Z"/><path class="cls-15" d="M873.47,177.71c3.59,0,5.67,3.17,5.67,7.33s-2.08,7.34-5.67,7.34-5.68-3.17-5.68-7.34S869.88,177.71,873.47,177.71Zm0,2.08c-2.13,0-3.27,2.28-3.27,5.25s1.14,5.23,3.27,5.23,3.27-2.29,3.27-5.23S875.57,179.79,873.47,179.79Z"/><path class="cls-15" d="M881.12,196V181.85h2.13v1.36a3.07,3.07,0,0,1,2.63-1.61c2.32,0,3.74,2.06,3.74,5.38s-1.42,5.4-3.74,5.4a3,3,0,0,1-2.63-1.64V196Zm4.12-12.56a2.38,2.38,0,0,0-2,1.4v4.21a2.43,2.43,0,0,0,2,1.43c1.47,0,2.19-1.56,2.19-3.53S886.71,183.47,885.24,183.47Z"/><path class="cls-15" d="M891.64,189.42a4,4,0,0,0,2.76,1.28c1.06,0,1.7-.49,1.7-1.28s-.89-1.23-1.93-1.61c-1.45-.51-3.15-1.13-3.15-3.28,0-1.59,1.28-2.93,3.53-2.93a4.73,4.73,0,0,1,3.38,1.32l-.89,1.44a3.26,3.26,0,0,0-2.45-1.08c-1,0-1.57.47-1.57,1.12s.85,1.13,1.87,1.49c1.47.53,3.23,1.17,3.23,3.42,0,1.77-1.42,3.07-3.67,3.07a5,5,0,0,1-3.77-1.47Z"/><path class="cls-15" d="M905.22,191.08a3.34,3.34,0,0,1-2.7,1.3,3.16,3.16,0,0,1-3.14-3.43,3.06,3.06,0,0,1,3.14-3.33,3.29,3.29,0,0,1,2.7,1.23v-1.49a1.8,1.8,0,0,0-2-2,3.5,3.5,0,0,0-2.55,1.16l-.83-1.48a5.32,5.32,0,0,1,3.77-1.49c2.14,0,3.72,1,3.72,3.51v7h-2.11Zm0-2.85a2.25,2.25,0,0,0-1.93-1.15,1.92,1.92,0,0,0,0,3.83,2.27,2.27,0,0,0,1.93-1.13Z"/><path class="cls-15" d="M915.4,185.13c0-1.21-.55-1.66-1.46-1.66a2.55,2.55,0,0,0-2.09,1.42v7.23h-2.12V181.85h2.12v1.39a3.78,3.78,0,0,1,3-1.64c1.85,0,2.7,1,2.7,2.78v7.74H915.4Z"/><path class="cls-15" d="M919.65,178.84A1.35,1.35,0,0,1,921,177.5a1.33,1.33,0,1,1-1.34,1.34Zm.28,3h2.12v10.27h-2.12Z"/><path class="cls-15" d="M845.06,210a4.51,4.51,0,0,0,3.38,1.53c1.47,0,2.21-.87,2.21-1.87,0-1.27-1.19-1.82-2.55-2.44-1.76-.77-3.8-1.64-3.8-4.29,0-2.21,1.72-4,4.4-4a5.79,5.79,0,0,1,4.08,1.53l-1.15,1.79a4.15,4.15,0,0,0-3-1.21,1.74,1.74,0,0,0-1.93,1.72c0,1.08,1.13,1.59,2.44,2.19,1.81.81,3.92,1.74,3.92,4.48,0,2.32-1.58,4.17-4.62,4.17a6,6,0,0,1-4.57-1.81Z"/><path class="cls-15" d="M860.2,212.33a3.34,3.34,0,0,1-2.7,1.3,3.16,3.16,0,0,1-3.15-3.42,3.08,3.08,0,0,1,3.15-3.34,3.3,3.3,0,0,1,2.7,1.23v-1.48a1.81,1.81,0,0,0-2-2,3.44,3.44,0,0,0-2.55,1.17l-.83-1.49a5.29,5.29,0,0,1,3.76-1.49c2.15,0,3.72,1,3.72,3.51v7h-2.1Zm0-2.85a2.25,2.25,0,0,0-1.94-1.14,1.91,1.91,0,0,0,0,3.82A2.27,2.27,0,0,0,860.2,211Z"/><path class="cls-15" d="M870,212.33a3.34,3.34,0,0,1-2.7,1.3,3.16,3.16,0,0,1-3.15-3.42,3.08,3.08,0,0,1,3.15-3.34,3.3,3.3,0,0,1,2.7,1.23v-1.48a1.81,1.81,0,0,0-2-2,3.44,3.44,0,0,0-2.55,1.17l-.83-1.49a5.29,5.29,0,0,1,3.76-1.49c2.15,0,3.72,1,3.72,3.51v7H870Zm0-2.85a2.25,2.25,0,0,0-1.94-1.14,1.91,1.91,0,0,0,0,3.82A2.27,2.27,0,0,0,870,211Z"/><path class="cls-15" d="M874.93,210a4.48,4.48,0,0,0,3.37,1.53c1.47,0,2.22-.87,2.22-1.87,0-1.27-1.19-1.82-2.56-2.44-1.76-.77-3.8-1.64-3.8-4.29,0-2.21,1.72-4,4.4-4a5.79,5.79,0,0,1,4.08,1.53l-1.15,1.79a4.15,4.15,0,0,0-3-1.21,1.74,1.74,0,0,0-1.94,1.72c0,1.08,1.13,1.59,2.45,2.19,1.8.81,3.91,1.74,3.91,4.48,0,2.32-1.58,4.17-4.62,4.17a6,6,0,0,1-4.56-1.81Z"/><path class="cls-15" d="M889.55,210a4.48,4.48,0,0,0,3.38,1.53c1.46,0,2.21-.87,2.21-1.87,0-1.27-1.19-1.82-2.55-2.44-1.77-.77-3.81-1.64-3.81-4.29,0-2.21,1.72-4,4.4-4a5.79,5.79,0,0,1,4.08,1.53l-1.14,1.79a4.17,4.17,0,0,0-3-1.21,1.74,1.74,0,0,0-1.94,1.72c0,1.08,1.13,1.59,2.45,2.19,1.81.81,3.91,1.74,3.91,4.48,0,2.32-1.57,4.17-4.61,4.17a6,6,0,0,1-4.57-1.81Z"/><path class="cls-15" d="M903.26,202.85c2.78,0,4.27,2.36,4.27,5.47v.61H901c.09,1.68,1,3,2.68,3a3.19,3.19,0,0,0,2.32-1.11l1,1.28a4.69,4.69,0,0,1-3.55,1.57c-2.83,0-4.61-2.21-4.61-5.4C898.86,205.26,900.51,202.85,903.26,202.85ZM901,207.42h4.49c0-1.27-.6-2.85-2.23-2.85S901.05,206.19,901,207.42Z"/><path class="cls-15" d="M909.33,203.11h2.13v1.51a3.44,3.44,0,0,1,2.83-1.75V205a2.45,2.45,0,0,0-.56-.07,2.86,2.86,0,0,0-2.27,1.43v7h-2.13Z"/><path class="cls-15" d="M914.56,203.11h2.26l2.27,7.74,2.29-7.74h2.26l-3.4,10.26h-2.3Z"/><path class="cls-15" d="M924.53,200.09a1.35,1.35,0,0,1,1.34-1.34,1.33,1.33,0,1,1-1.34,1.34Zm.28,3h2.12v10.26h-2.12Z"/><path class="cls-15" d="M933.33,202.85a3.79,3.79,0,0,1,3.12,1.38l-1.08,1.45a2.17,2.17,0,0,0-1.83-1c-1.61,0-2.53,1.55-2.53,3.51s.92,3.53,2.53,3.53a2.22,2.22,0,0,0,1.83-1l1.08,1.45a3.79,3.79,0,0,1-3.12,1.38c-2.74,0-4.51-2.3-4.51-5.4S930.59,202.85,933.33,202.85Z"/><path class="cls-15" d="M941.94,202.85c2.78,0,4.27,2.36,4.27,5.47v.61h-6.53c.09,1.68,1,3,2.68,3a3.19,3.19,0,0,0,2.32-1.11l1,1.28a4.69,4.69,0,0,1-3.55,1.57c-2.83,0-4.61-2.21-4.61-5.4C937.54,205.26,939.2,202.85,941.94,202.85Zm-2.28,4.57h4.49c0-1.27-.6-2.85-2.23-2.85S939.73,206.19,939.66,207.42Z"/><path class="cls-15" d="M875.25,230.5A14.14,14.14,0,0,1,877.4,223l1.14.67a16.86,16.86,0,0,0,0,13.68l-1.14.68A14.06,14.06,0,0,1,875.25,230.5Z"/><path class="cls-15" d="M884.33,229c0-.95-.46-1.29-1.19-1.29a2.07,2.07,0,0,0-1.66,1.14v5.78h-1.7V223.29h1.7v4.23a3,3,0,0,1,2.39-1.31,1.93,1.93,0,0,1,2.15,2.21v6.21h-1.69Z"/><path class="cls-15" d="M888.24,232.79V227.9h-1.07v-1.48h1.07v-2.25h1.7v2.25h1.36v1.48h-1.36v4.54c0,.56.19.9.63.9a.84.84,0,0,0,.65-.28l.41,1.28a2,2,0,0,1-1.48.49C888.86,234.83,888.24,234.14,888.24,232.79Z"/><path class="cls-15" d="M893,232.79V227.9H891.9v-1.48H893v-2.25h1.7v2.25H896v1.48h-1.36v4.54c0,.56.19.9.63.9a.81.81,0,0,0,.64-.28l.41,1.28a2,2,0,0,1-1.48.49C893.58,234.83,893,234.14,893,232.79Z"/><path class="cls-15" d="M897.39,237.76V226.42h1.7v1.09a2.46,2.46,0,0,1,2.11-1.3c1.85,0,3,1.65,3,4.31s-1.14,4.31-3,4.31a2.38,2.38,0,0,1-2.11-1.31v4.24Zm3.3-10a1.89,1.89,0,0,0-1.6,1.12v3.37a2,2,0,0,0,1.6,1.14c1.17,0,1.75-1.24,1.75-2.82S901.86,227.71,900.69,227.71Z"/><path class="cls-15" d="M905.8,232.47a3.22,3.22,0,0,0,2.21,1c.85,0,1.36-.39,1.36-1s-.71-1-1.54-1.29c-1.16-.41-2.52-.9-2.52-2.62,0-1.28,1-2.35,2.82-2.35a3.78,3.78,0,0,1,2.7,1.06l-.71,1.15a2.59,2.59,0,0,0-2-.86c-.77,0-1.26.37-1.26.9s.68.9,1.49,1.19c1.18.42,2.59.93,2.59,2.73,0,1.42-1.14,2.45-2.94,2.45a4,4,0,0,1-3-1.17Z"/><path class="cls-15" d="M911.74,223.65l1.12-.67a14.15,14.15,0,0,1,0,15l-1.12-.68a17,17,0,0,0,0-13.68Z"/><path class="cls-15" d="M856.14,82l-1,1.52v4h-2.22V74.19h2.22v6.42l4.14-6.42h2.6l-4.36,6.3,4.68,7h-2.62Z"/><path class="cls-15" d="M868.4,86.25a3.49,3.49,0,0,1-2.82,1.52c-1.72,0-2.52-.92-2.52-2.6v-7.3h2v6.6c0,1.12.52,1.54,1.38,1.54a2.42,2.42,0,0,0,2-1.32V77.87h2v9.66h-2Z"/><path class="cls-15" d="M872.66,74.19h2v5a2.82,2.82,0,0,1,2.48-1.54c2.16,0,3.52,2,3.52,5.08s-1.36,5.06-3.52,5.06a2.93,2.93,0,0,1-2.48-1.52v1.28h-2ZM876.54,86c1.38,0,2.06-1.44,2.06-3.3s-.68-3.32-2.06-3.32a2.29,2.29,0,0,0-1.88,1.34v4A2.27,2.27,0,0,0,876.54,86Z"/><path class="cls-15" d="M886.1,77.63c2.62,0,4,2.22,4,5.14v.58H884c.08,1.58,1,2.78,2.52,2.78a3,3,0,0,0,2.18-1l1,1.2a4.42,4.42,0,0,1-3.34,1.48c-2.66,0-4.34-2.08-4.34-5.08C882,79.89,883.52,77.63,886.1,77.63ZM884,81.93h4.22c0-1.2-.56-2.68-2.1-2.68S884,80.77,884,81.93Z"/><path class="cls-15" d="M891.82,77.87h2v1.42a3.23,3.23,0,0,1,2.66-1.64v2a2.18,2.18,0,0,0-.52-.06,2.71,2.71,0,0,0-2.14,1.34v6.62h-2Z"/><path class="cls-15" d="M903.22,81c0-1.14-.52-1.56-1.38-1.56a2.39,2.39,0,0,0-2,1.34v6.8h-2V77.87h2v1.3a3.55,3.55,0,0,1,2.8-1.54,2.3,2.3,0,0,1,2.54,2.62v7.28h-2Z"/><path class="cls-15" d="M911.14,77.63c2.62,0,4,2.22,4,5.14v.58H909c.08,1.58,1,2.78,2.52,2.78a3,3,0,0,0,2.18-1l1,1.2a4.42,4.42,0,0,1-3.34,1.48c-2.66,0-4.34-2.08-4.34-5.08C907,79.89,908.56,77.63,911.14,77.63ZM909,81.93h4.22c0-1.2-.56-2.68-2.1-2.68S909.06,80.77,909,81.93Z"/><path class="cls-15" d="M917.22,85.37V79.61H916V77.87h1.26V75.23h2v2.64h1.6v1.74h-1.6V85c0,.66.22,1.06.74,1.06a1,1,0,0,0,.76-.32l.48,1.5a2.36,2.36,0,0,1-1.74.58C917.94,87.77,917.22,87,917.22,85.37Z"/><path class="cls-15" d="M926.08,77.63c2.62,0,4,2.22,4,5.14v.58H924c.08,1.58,1,2.78,2.52,2.78a3,3,0,0,0,2.18-1l1,1.2a4.42,4.42,0,0,1-3.34,1.48c-2.66,0-4.34-2.08-4.34-5.08C921.94,79.89,923.5,77.63,926.08,77.63Zm-2.14,4.3h4.22c0-1.2-.56-2.68-2.1-2.68S924,80.77,923.94,81.93Z"/><path class="cls-15" d="M931.94,85a3.75,3.75,0,0,0,2.6,1.2c1,0,1.6-.46,1.6-1.2s-.84-1.16-1.82-1.52c-1.36-.48-3-1.06-3-3.08,0-1.5,1.2-2.76,3.32-2.76a4.47,4.47,0,0,1,3.18,1.24L937,80.23a3,3,0,0,0-2.3-1c-.9,0-1.48.44-1.48,1.06s.8,1.06,1.76,1.4c1.38.5,3,1.1,3,3.22,0,1.66-1.34,2.88-3.46,2.88A4.73,4.73,0,0,1,931,86.39Z"/><path class="cls-15" d="M890,104.89h-4.58l-.72,2.64h-2.3l4-13.34H889l4,13.34h-2.3Zm-4.12-2h3.68l-1.84-6.76Z"/><path class="cls-15" d="M894.26,94.19h4.54a3.82,3.82,0,0,1,3.94,4.14c0,2.24-1.32,4.16-3.94,4.16h-2.32v5h-2.22Zm4.28,1.94h-2.06v4.4h2.06a2.22,2.22,0,0,0,0-4.4Z"/><path class="cls-15" d="M904.42,94.19h2.22v13.34h-2.22Z"/><path class="cls-15" d="M850.54,308.43h4.54a3.82,3.82,0,0,1,3.94,4.14c0,2.24-1.32,4.16-3.94,4.16h-2.32v5h-2.22Zm4.28,1.94h-2.06v4.4h2.06a2.22,2.22,0,0,0,0-4.4Z"/><path class="cls-15" d="M860.6,312.11h2v1.42a3.23,3.23,0,0,1,2.66-1.64v2a2.18,2.18,0,0,0-.52-.06,2.71,2.71,0,0,0-2.14,1.34v6.62h-2Z"/><path class="cls-15" d="M866.18,316.93c0-2.72,1.44-5.06,4.18-5.06s4.18,2.34,4.18,5.06S873.1,322,870.36,322,866.18,319.65,866.18,316.93Zm6.3,0c0-1.74-.66-3.3-2.12-3.3s-2.12,1.56-2.12,3.3.66,3.32,2.12,3.32S872.48,318.67,872.48,316.93Z"/><path class="cls-15" d="M886.4,315.05c0-.9-.36-1.42-1.2-1.42a2.31,2.31,0,0,0-1.84,1.34v6.8h-2v-6.72c0-.88-.36-1.42-1.2-1.42a2.34,2.34,0,0,0-1.84,1.34v6.8h-2v-9.66h2v1.3a3.35,3.35,0,0,1,2.68-1.54,2.09,2.09,0,0,1,2.26,1.7,3.37,3.37,0,0,1,2.78-1.7c1.46,0,2.36.78,2.36,2.54v7.36h-2Z"/><path class="cls-15" d="M894.32,311.87c2.62,0,4,2.22,4,5.14v.58H892.2c.08,1.58,1,2.78,2.52,2.78a3,3,0,0,0,2.18-1l1,1.2a4.42,4.42,0,0,1-3.34,1.48c-2.66,0-4.34-2.08-4.34-5.08C890.18,314.13,891.74,311.87,894.32,311.87Zm-2.14,4.3h4.22c0-1.2-.56-2.68-2.1-2.68S892.24,315,892.18,316.17Z"/><path class="cls-15" d="M900.4,319.61v-5.76h-1.26v-1.74h1.26v-2.64h2v2.64H904v1.74h-1.6v5.34c0,.66.22,1.06.74,1.06a1,1,0,0,0,.76-.32l.48,1.5a2.36,2.36,0,0,1-1.74.58C901.12,322,900.4,321.19,900.4,319.61Z"/><path class="cls-15" d="M911,315.15c0-1.12-.54-1.52-1.4-1.52a2.44,2.44,0,0,0-2,1.34v6.8h-2V308.43h2v5a3.59,3.59,0,0,1,2.82-1.54c1.72,0,2.52.9,2.52,2.6v7.3h-2Z"/><path class="cls-15" d="M918.86,311.87c2.62,0,4,2.22,4,5.14v.58h-6.14c.08,1.58,1,2.78,2.52,2.78a3,3,0,0,0,2.18-1l1,1.2a4.42,4.42,0,0,1-3.34,1.48c-2.66,0-4.34-2.08-4.34-5.08C914.72,314.13,916.28,311.87,918.86,311.87Zm-2.14,4.3h4.22c0-1.2-.56-2.68-2.1-2.68S916.78,315,916.72,316.17Z"/><path class="cls-15" d="M929.92,320.49A3.49,3.49,0,0,1,927.1,322c-1.72,0-2.52-.92-2.52-2.6v-7.3h2v6.6c0,1.12.52,1.54,1.38,1.54a2.42,2.42,0,0,0,2-1.32v-6.82h2v9.66h-2Z"/><path class="cls-15" d="M934.32,319.23a3.75,3.75,0,0,0,2.6,1.2c1,0,1.6-.46,1.6-1.2s-.84-1.16-1.82-1.52c-1.36-.48-3-1.06-3-3.08,0-1.5,1.2-2.76,3.32-2.76a4.47,4.47,0,0,1,3.18,1.24l-.84,1.36a3,3,0,0,0-2.3-1c-.9,0-1.48.44-1.48,1.06s.8,1.06,1.76,1.4c1.38.5,3,1.1,3,3.22,0,1.66-1.34,2.88-3.46,2.88a4.76,4.76,0,0,1-3.55-1.38Z"/><path class="cls-15" d="M841.46,328.43H846a3.82,3.82,0,0,1,3.94,4.14c0,2.24-1.32,4.16-3.94,4.16h-2.32v5h-2.22Zm4.28,1.94h-2.06v4.4h2.06a2.22,2.22,0,0,0,0-4.4Z"/><path class="cls-15" d="M856.86,340.49A3.49,3.49,0,0,1,854,342c-1.72,0-2.52-.92-2.52-2.6v-7.3h2v6.6c0,1.12.52,1.54,1.38,1.54a2.42,2.42,0,0,0,2-1.32v-6.82h2v9.66h-2Z"/><path class="cls-15" d="M861.12,328.43h2v13.34h-2Z"/><path class="cls-15" d="M865.38,328.43h2v13.34h-2Z"/><path class="cls-15" d="M873.38,335.11c0-4,2.1-6.9,5.38-6.9a4.53,4.53,0,0,1,4.28,2.94l-1.84.82a2.65,2.65,0,0,0-2.44-1.8c-1.9,0-3.12,2.08-3.12,4.94s1.22,4.92,3.12,4.92a2.66,2.66,0,0,0,2.46-2l1.84.82a4.53,4.53,0,0,1-4.3,3.12C875.48,342,873.38,339.11,873.38,335.11Z"/><path class="cls-15" d="M884.14,336.93c0-2.72,1.44-5.06,4.18-5.06s4.18,2.34,4.18,5.06-1.44,5.08-4.18,5.08S884.14,339.65,884.14,336.93Zm6.3,0c0-1.74-.66-3.3-2.12-3.3s-2.12,1.56-2.12,3.3.66,3.32,2.12,3.32S890.44,338.67,890.44,336.93Z"/><path class="cls-15" d="M899.62,335.19c0-1.14-.52-1.56-1.38-1.56a2.39,2.39,0,0,0-2,1.34v6.8h-2v-9.66h2v1.3a3.55,3.55,0,0,1,2.8-1.54,2.3,2.3,0,0,1,2.54,2.62v7.28h-2Z"/><path class="cls-15" d="M904,339.23a3.75,3.75,0,0,0,2.6,1.2c1,0,1.6-.46,1.6-1.2s-.84-1.16-1.82-1.52c-1.36-.48-3-1.06-3-3.08,0-1.5,1.2-2.76,3.32-2.76a4.47,4.47,0,0,1,3.18,1.24l-.84,1.36a3,3,0,0,0-2.3-1c-.9,0-1.48.44-1.48,1.06s.8,1.06,1.76,1.4c1.38.5,3,1.1,3,3.22,0,1.66-1.34,2.88-3.46,2.88a4.73,4.73,0,0,1-3.54-1.38Z"/><path class="cls-15" d="M917.14,340.49a3.49,3.49,0,0,1-2.82,1.52,2.27,2.27,0,0,1-2.53-2.6v-7.3h2v6.6c0,1.12.53,1.54,1.38,1.54a2.42,2.42,0,0,0,2-1.32v-6.82h2v9.66h-2Z"/><path class="cls-15" d="M931.48,335.05c0-.9-.36-1.42-1.2-1.42a2.31,2.31,0,0,0-1.84,1.34v6.8h-2v-6.72c0-.88-.36-1.42-1.2-1.42a2.34,2.34,0,0,0-1.85,1.34v6.8h-2v-9.66h2v1.3a3.36,3.36,0,0,1,2.69-1.54,2.1,2.1,0,0,1,2.26,1.7,3.37,3.37,0,0,1,2.78-1.7c1.46,0,2.36.78,2.36,2.54v7.36h-2Z"/><path class="cls-15" d="M939.39,331.87c2.63,0,4,2.22,4,5.14v.58h-6.15c.08,1.58,1,2.78,2.52,2.78a3,3,0,0,0,2.19-1l1,1.2a4.42,4.42,0,0,1-3.35,1.48c-2.66,0-4.34-2.08-4.34-5.08C935.25,334.13,936.81,331.87,939.39,331.87Zm-2.14,4.3h4.23c0-1.2-.57-2.68-2.11-2.68S937.31,335,937.25,336.17Z"/><path class="cls-15" d="M945.11,332.11h2v1.42a3.23,3.23,0,0,1,2.66-1.64v2a2.12,2.12,0,0,0-.52-.06,2.71,2.71,0,0,0-2.14,1.34v6.62h-2Z"/><line class="cls-9" x1="124.8" y1="189.84" x2="130.73" y2="195.77"/><line class="cls-9" x1="124.8" y1="189.84" x2="130.73" y2="183.91"/><line class="cls-9" x1="124.8" y1="207.8" x2="130.73" y2="213.73"/><line class="cls-9" x1="124.8" y1="207.8" x2="130.73" y2="201.87"/><line class="cls-9" x1="124.8" y1="224.97" x2="130.73" y2="230.9"/><line class="cls-9" x1="124.8" y1="224.97" x2="130.73" y2="219.04"/><line class="cls-9" x1="438.93" y1="358.01" x2="444.86" y2="363.94"/><line class="cls-9" x1="438.93" y1="358.01" x2="444.86" y2="352.08"/><line class="cls-9" x1="601.74" y1="206.45" x2="607.67" y2="212.38"/><line class="cls-9" x1="601.74" y1="206.45" x2="607.67" y2="200.51"/><line class="cls-9" x1="601.74" y1="234.74" x2="607.67" y2="240.67"/><line class="cls-9" x1="601.74" y1="234.74" x2="607.67" y2="228.8"/><line class="cls-9" x1="601.74" y1="178.72" x2="607.67" y2="184.65"/><line class="cls-9" x1="601.74" y1="178.72" x2="607.67" y2="172.79"/><rect class="cls-25" x="70.87" y="167.27" width="41.83" height="151.29"/><path class="cls-15" d="M49.23,257.91v9.22H47V253.79h2.24l4.82,8.88v-8.88h2.22v13.34H54.17Z"/><path class="cls-15" d="M63.69,253.57a4.57,4.57,0,0,1,4.24,2.84l-1.8.84a2.71,2.71,0,0,0-2.44-1.72c-1.9,0-3.18,1.9-3.18,4.94s1.28,4.94,3.18,4.94a3,3,0,0,0,2.22-1V262h-2.8V260H68v5.3a5.46,5.46,0,0,1-4.32,2.06c-3.28,0-5.44-2.8-5.44-6.92S60.41,253.57,63.69,253.57Z"/><path class="cls-15" d="M70.17,253.79h2.22v13.34H70.17Z"/><path class="cls-15" d="M77.07,257.91v9.22H74.85V253.79h2.24l4.82,8.88v-8.88h2.22v13.34H82Z"/><path class="cls-15" d="M90.65,262.05l-2.74,5.08H85.35l3.94-6.82-3.7-6.52h2.54l2.52,4.8,2.52-4.8h2.56l-3.7,6.5L96,267.13H93.41Z"/><path class="cls-15" d="M44.44,273.79h2.22v13.34H44.44Z"/><path class="cls-15" d="M54.36,280.55c0-1.14-.52-1.56-1.38-1.56a2.39,2.39,0,0,0-2,1.34v6.8H49v-9.66h2v1.3a3.55,3.55,0,0,1,2.8-1.54,2.3,2.3,0,0,1,2.54,2.62v7.28h-2Z"/><path class="cls-15" d="M59.36,288.29a3.26,3.26,0,0,0,2.5,1.08A2.15,2.15,0,0,0,64.14,287v-1.38a3,3,0,0,1-2.48,1.58c-2.16,0-3.52-1.86-3.52-5s1.34-5,3.52-5a2.86,2.86,0,0,1,2.48,1.54v-1.3h2v9.32c0,3.34-2.08,4.26-4.16,4.26a4.63,4.63,0,0,1-3.42-1.22Zm4.78-8A2.27,2.27,0,0,0,62.26,279c-1.38,0-2.06,1.34-2.06,3.2s.68,3.18,2.06,3.18a2.27,2.27,0,0,0,1.88-1.32Z"/><path class="cls-15" d="M68.38,277.47h2v1.42A3.23,3.23,0,0,1,73,277.25v2a2.18,2.18,0,0,0-.52-.06,2.71,2.71,0,0,0-2.14,1.34v6.62h-2Z"/><path class="cls-15" d="M78.1,277.23c2.62,0,4,2.22,4,5.14V283H76c.08,1.58,1,2.78,2.52,2.78a3,3,0,0,0,2.18-1l1,1.2a4.42,4.42,0,0,1-3.34,1.48c-2.66,0-4.34-2.08-4.34-5.08C74,279.49,75.52,277.23,78.1,277.23ZM76,281.53h4.22c0-1.2-.56-2.68-2.1-2.68S76,280.37,76,281.53Z"/><path class="cls-15" d="M84,284.59a3.75,3.75,0,0,0,2.6,1.2c1,0,1.6-.46,1.6-1.2s-.84-1.16-1.82-1.52c-1.36-.48-3-1.06-3-3.08,0-1.5,1.2-2.76,3.32-2.76a4.47,4.47,0,0,1,3.18,1.24L89,279.83a3,3,0,0,0-2.3-1c-.9,0-1.48.44-1.48,1.06s.8,1.06,1.76,1.4c1.38.5,3,1.1,3,3.22,0,1.66-1.34,2.88-3.46,2.88A4.73,4.73,0,0,1,83.06,286Z"/><path class="cls-15" d="M91.88,284.59a3.75,3.75,0,0,0,2.6,1.2c1,0,1.6-.46,1.6-1.2s-.84-1.16-1.82-1.52c-1.36-.48-3-1.06-3-3.08,0-1.5,1.2-2.76,3.32-2.76a4.47,4.47,0,0,1,3.18,1.24L97,279.83a3,3,0,0,0-2.3-1c-.9,0-1.48.44-1.48,1.06s.8,1.06,1.76,1.4c1.38.5,3,1.1,3,3.22,0,1.66-1.34,2.88-3.46,2.88A4.73,4.73,0,0,1,91,286Z"/><path class="cls-15" d="M33.93,300.47c0-4,2.1-6.9,5.38-6.9a4.53,4.53,0,0,1,4.28,2.94l-1.84.82a2.65,2.65,0,0,0-2.44-1.8c-1.9,0-3.12,2.08-3.12,4.94s1.22,4.92,3.12,4.92a2.66,2.66,0,0,0,2.46-2l1.84.82a4.53,4.53,0,0,1-4.3,3.12C36,307.37,33.93,304.47,33.93,300.47Z"/><path class="cls-15" d="M44.69,302.29c0-2.72,1.44-5.06,4.18-5.06s4.18,2.34,4.18,5.06-1.44,5.08-4.18,5.08S44.69,305,44.69,302.29Zm6.3,0c0-1.74-.66-3.3-2.12-3.3s-2.12,1.56-2.12,3.3.66,3.32,2.12,3.32S51,304,51,302.29Z"/><path class="cls-15" d="M60.17,300.55c0-1.14-.52-1.56-1.38-1.56a2.39,2.39,0,0,0-2,1.34v6.8h-2v-9.66h2v1.3a3.55,3.55,0,0,1,2.8-1.54,2.3,2.3,0,0,1,2.54,2.62v7.28h-2Z"/><path class="cls-15" d="M64.79,305v-5.76H63.53v-1.74h1.26v-2.64h2v2.64h1.6v1.74h-1.6v5.34c0,.66.22,1.06.74,1.06a1,1,0,0,0,.76-.32l.48,1.5a2.36,2.36,0,0,1-1.74.58C65.51,307.37,64.79,306.55,64.79,305Z"/><path class="cls-15" d="M70,297.47h2v1.42a3.23,3.23,0,0,1,2.66-1.64v2a2.18,2.18,0,0,0-.52-.06A2.71,2.71,0,0,0,72,300.51v6.62H70Z"/><path class="cls-15" d="M75.57,302.29c0-2.72,1.44-5.06,4.18-5.06s4.18,2.34,4.18,5.06-1.44,5.08-4.18,5.08S75.57,305,75.57,302.29Zm6.3,0c0-1.74-.66-3.3-2.12-3.3s-2.12,1.56-2.12,3.3.66,3.32,2.12,3.32S81.87,304,81.87,302.29Z"/><path class="cls-15" d="M85.71,293.79h2v13.34h-2Z"/><path class="cls-15" d="M90,293.79h2v13.34H90Z"/><path class="cls-15" d="M97.89,297.23c2.62,0,4,2.22,4,5.14V303H95.77c.08,1.58,1,2.78,2.52,2.78a3,3,0,0,0,2.18-1l1,1.2a4.42,4.42,0,0,1-3.34,1.48c-2.66,0-4.34-2.08-4.34-5.08C93.75,299.49,95.31,297.23,97.89,297.23Zm-2.14,4.3H100c0-1.2-.56-2.68-2.1-2.68S95.81,300.37,95.75,301.53Z"/><path class="cls-15" d="M103.61,297.47h2v1.42a3.23,3.23,0,0,1,2.66-1.64v2a2.18,2.18,0,0,0-.52-.06,2.71,2.71,0,0,0-2.14,1.34v6.62h-2Z"/><path class="cls-26" d="M99.74,237.85h.47v-1.06h.38a1,1,0,0,1,.52.09c.17.09.25.3.25.61v.33s0,0,0,0h.44v0s0-.07,0-.14a1.48,1.48,0,0,1,0-.2v-.2a.74.74,0,0,0-.15-.42.65.65,0,0,0-.47-.26,1.26,1.26,0,0,0,.39-.13.59.59,0,0,0,.27-.53.68.68,0,0,0-.42-.69,2.16,2.16,0,0,0-.73-.09h-.94Zm1.35-1.45a1.3,1.3,0,0,1-.46.06h-.42v-1h.41a1.19,1.19,0,0,1,.57.1.41.41,0,0,1,.17.39.43.43,0,0,1-.27.43m1.37-1.62a2.36,2.36,0,0,0-1.74-.71,2.32,2.32,0,0,0-1.72.71,2.45,2.45,0,1,0,3.46,0m-.24.24a2.11,2.11,0,1,1-1.5-.62,2,2,0,0,1,1.5.62"/><path class="cls-27" d="M38.29,226.16a3.79,3.79,0,0,0,1.41,1.4l28.88,16.67h0a3.8,3.8,0,0,0,3.84,0l28.88-16.67a3.79,3.79,0,0,0,1.41-1.4,3.65,3.65,0,0,0,.51-1.93V190.89h0a3.75,3.75,0,0,0-.51-1.93,3.79,3.79,0,0,0-1.41-1.4L72.42,170.89h0a3.74,3.74,0,0,0-3.84,0h0L39.7,187.56a3.8,3.8,0,0,0-1.92,3.33h0v33.34a3.85,3.85,0,0,0,.51,1.93"/><rect class="cls-28" x="50.43" y="194.96" width="25.38" height="25.38"/><rect class="cls-29" x="83.25" y="192.02" width="7.33" height="7.33"/><rect class="cls-29" x="83.25" y="203.9" width="7.33" height="7.33"/><rect class="cls-29" x="83.25" y="215.77" width="7.33" height="7.33"/><line class="cls-29" x1="76.38" y1="207.65" x2="82.82" y2="207.65"/><line class="cls-29" x1="76.04" y1="210.68" x2="83.35" y2="216.25"/><line class="cls-29" x1="76.04" y1="204.62" x2="83.35" y2="199.05"/><path class="cls-4" d="M95.15,179.55l16.5,14.22a2.66,2.66,0,0,0,3.76-3.75l-16.5-14.23a2.72,2.72,0,0,0-3.76,0,2.68,2.68,0,0,0,0,3.76Z"/><path class="cls-17" d="M207.59,225a10.62,10.62,0,0,1,10.62,10.63"/><ellipse class="cls-1" cx="812.9" cy="167.29" rx="19.69" ry="19.3"/><path class="cls-18" d="M832.4,163c-.14-.51-.3-1-.48-1.52h0a11.19,11.19,0,0,0-1.13-2.63h0a25.81,25.81,0,0,0-1.66-2.63,20.23,20.23,0,0,0-3-3.23,20.49,20.49,0,0,0-4.09-2.75,4.3,4.3,0,0,0-2.35-.69,3.53,3.53,0,0,0-3.25,3,2.86,2.86,0,0,0,0,1.3,4,4,0,0,0,.75,1.26h0l.4.35h0l.08.07.45.28s6.1,3.21,7.74,8.45a10.81,10.81,0,0,1,.29,1.28v.11h0a13.76,13.76,0,0,1,.23,3.57,4.51,4.51,0,0,1-.1.9v.21a14.57,14.57,0,0,1-.31,1.6,13.54,13.54,0,0,1-11.36,10,12.9,12.9,0,0,1-9.89-2.74,14,14,0,0,1-2.64-2.75,17.1,17.1,0,0,1-1.17-1.82.91.91,0,0,0-1.21-.35.93.93,0,0,0-.46,1.18,3,3,0,0,0,.23.48,21,21,0,0,0,2.32,3.13.78.78,0,0,1,0,1.15.81.81,0,0,1-1.15-.1c-.24-.25-.48-.51-.7-.78a22.14,22.14,0,0,1-3-5.18,12,12,0,0,1-.83-3.17,15.13,15.13,0,0,1-.24-3.36c0-.45,0-.68.07-1l0-.13a.59.59,0,0,0,0-.13l0-.34a23.1,23.1,0,0,1,.83-3.57,1.54,1.54,0,0,0-1-1.95,1.57,1.57,0,0,0-2,.91,13.64,13.64,0,0,0-.71,2.22,19.15,19.15,0,0,0-.47,3.3,20.23,20.23,0,0,0,.81,7.21,23,23,0,0,0,2.15,4.84c.34.47.65,1,1,1.43a21.34,21.34,0,0,0,4.47,4.38,17.62,17.62,0,0,0,3.77,2.1,20.21,20.21,0,0,0,19.93-2.33,22.54,22.54,0,0,0,3.63-3.41l.14-.18a.24.24,0,0,1,.13-.15.23.23,0,0,1,.13-.17.72.72,0,0,1,.18-.25l.1-.12.28-.4a.23.23,0,0,1,.11-.16l.16-.25.12-.17L830,179a.36.36,0,0,1,.13-.21c.2-.36.42-.71.6-1.08a20.75,20.75,0,0,0,2.14-6.64A20.5,20.5,0,0,0,832.4,163Z"/><polygon class="cls-18" points="828.8 180.79 828.79 180.79 828.79 180.79 828.8 180.79"/><path class="cls-18" d="M802.44,156.91h0a6.88,6.88,0,0,0-1.24,1.31h0l-.2.24a15.21,15.21,0,0,0-3.1,12.41,1.16,1.16,0,0,0,1.59.86c.57-.22.8-.73.7-1.49a11.79,11.79,0,0,1-.13-1.32,13.18,13.18,0,0,1,.24-2.93,23.84,23.84,0,0,1,.61-2.35,11.4,11.4,0,0,1,1.21-2.45,12.35,12.35,0,0,1,2.22-2.71l1.39-1.16a14.85,14.85,0,0,1,5.49-2.4,3.89,3.89,0,0,0,1-.35,1,1,0,0,0,.29-1.4,1.31,1.31,0,0,0-1.38-.49,17.5,17.5,0,0,0-5.12,1.73A16.08,16.08,0,0,0,802.44,156.91Z"/><path class="cls-18" d="M797.11,159.36a1.63,1.63,0,0,0,1.76-.67,15.12,15.12,0,0,1,1.52-2,17.48,17.48,0,0,1,2.41-2.38,1.59,1.59,0,0,0,.54-1.71,1.45,1.45,0,0,0-2.27-.77,13,13,0,0,0-3.2,2.85c-.6.71-1.13,1.48-1.67,2.22a2,2,0,0,0-.27,1.14A1.67,1.67,0,0,0,797.11,159.36Z"/><path class="cls-18" d="M804.17,161.94a2.51,2.51,0,0,0-.33.63.79.79,0,0,0,.51,1,.86.86,0,0,0,1.12-.43,9.72,9.72,0,0,1,2.39-2.52.89.89,0,0,0,.22-1.33l-.07-.07a1,1,0,0,0-.67-.19h0a.46.46,0,0,0-.21.08h0a2.67,2.67,0,0,0-.73.49A11.9,11.9,0,0,0,804.17,161.94Z"/><path class="cls-18" d="M806.14,152.36a1.59,1.59,0,0,0,0-3.17,1.59,1.59,0,1,0,0,3.17Z"/><path class="cls-18" d="M802.36,165.5c0,.06,0,.12,0,.18h0c-.05.21-.09.41-.12.62a9.2,9.2,0,0,0-.18,1.9,13.52,13.52,0,0,0,1,4.77,11.3,11.3,0,0,0,1.49,2.62,10.5,10.5,0,0,0,1.67,1.73,11.82,11.82,0,0,0,3.29,2,.88.88,0,0,0,.66,0,.86.86,0,0,0,0-1.6,9.28,9.28,0,0,1-1.59-.84A10.87,10.87,0,0,1,805,173a9.69,9.69,0,0,1-1.14-5.81c0-.49.2-1,.23-1.47a.79.79,0,0,0-.64-.84A.89.89,0,0,0,802.36,165.5Z"/><path class="cls-18" d="M811.83,179a.85.85,0,0,0,.84.87.85.85,0,1,0-.84-.87Z"/><line class="cls-9" x1="808.3" y1="381.56" x2="800.07" y2="383.2"/><line class="cls-9" x1="808.3" y1="381.56" x2="809.94" y2="389.79"/><path class="cls-17" d="M782.15,398.85a28.42,28.42,0,0,0,26.15-17.28"/><path class="cls-15" d="M100.08,85c0-4,2.18-6.9,5.6-6.9a4.71,4.71,0,0,1,4.5,3.2l-2.22,1a2.46,2.46,0,0,0-2.28-1.8c-1.76,0-2.84,1.9-2.84,4.52s1.08,4.52,2.84,4.52a2.52,2.52,0,0,0,2.3-1.94l2.22,1a4.73,4.73,0,0,1-4.52,3.36C102.26,91.91,100.08,89.05,100.08,85Z"/><path class="cls-15" d="M117.1,90.45a3.53,3.53,0,0,1-2.84,1.46,2.31,2.31,0,0,1-2.58-2.6V82h2.4v6.38c0,1,.48,1.4,1.28,1.4a2.12,2.12,0,0,0,1.74-1.18V82h2.4v9.66h-2.4Z"/><path class="cls-15" d="M121.94,88.85A4,4,0,0,0,124.6,90c.92,0,1.42-.38,1.42-1s-.74-.94-1.66-1.24c-1.36-.44-3.12-1-3.12-3.12,0-1.56,1.26-2.9,3.52-2.9A5,5,0,0,1,128.12,83l-1,1.62a3.28,3.28,0,0,0-2.36-1c-.76,0-1.28.36-1.28.9s.66.86,1.56,1.14c1.4.44,3.24,1,3.24,3.24,0,1.74-1.42,3-3.68,3a5.11,5.11,0,0,1-3.72-1.38Z"/><path class="cls-15" d="M130.32,89.35V84.11h-1.26V82h1.26V79.37h2.4V82h1.6v2.1h-1.6v4.68c0,.62.24,1,.7,1a1,1,0,0,0,.72-.28l.5,1.84a2.78,2.78,0,0,1-1.86.56C131.1,91.91,130.32,91.05,130.32,89.35Z"/><path class="cls-15" d="M135.36,86.83c0-2.7,1.52-5.06,4.36-5.06s4.38,2.36,4.38,5.06-1.5,5.08-4.38,5.08S135.36,89.55,135.36,86.83Zm6.26,0c0-1.58-.58-2.94-1.9-2.94s-1.86,1.36-1.86,2.94.58,3,1.86,3S141.62,88.43,141.62,86.83Z"/><path class="cls-15" d="M156.08,85.17c0-.8-.34-1.28-1.1-1.28a2.11,2.11,0,0,0-1.66,1.2v6.58h-2.4v-6.5c0-.78-.32-1.28-1.1-1.28a2.14,2.14,0,0,0-1.66,1.2v6.58h-2.4V82h2.4v1.26a3.42,3.42,0,0,1,2.72-1.5,2.17,2.17,0,0,1,2.34,1.68A3.43,3.43,0,0,1,156,81.77a2.24,2.24,0,0,1,2.44,2.56v7.34h-2.4Z"/><path class="cls-15" d="M164.46,81.77c2.66,0,4.16,2.16,4.16,5.16v.68h-6.06A2.3,2.3,0,0,0,164.9,90,2.92,2.92,0,0,0,167,89l1.1,1.44a4.71,4.71,0,0,1-3.46,1.44c-2.72,0-4.5-2-4.5-5.08C160.14,84,161.78,81.77,164.46,81.77Zm-1.9,4.2h3.74c0-1-.48-2.26-1.88-2.26S162.6,85,162.56,86Z"/><path class="cls-15" d="M170.22,82h2.4v1.34a3.29,3.29,0,0,1,2.64-1.56v2.34a2.46,2.46,0,0,0-.58-.06,2.67,2.67,0,0,0-2.06,1.16v6.44h-2.4Z"/><path class="cls-15" d="M176.68,82.87a3.5,3.5,0,0,0,1.5-1.9,1.32,1.32,0,0,1-.36.06,1.29,1.29,0,0,1-1.3-1.38,1.52,1.52,0,0,1,1.5-1.52,1.78,1.78,0,0,1,1.7,2,4.44,4.44,0,0,1-2,3.6Z"/><path class="cls-15" d="M181.32,88.85A4,4,0,0,0,184,90c.92,0,1.42-.38,1.42-1s-.74-.94-1.66-1.24c-1.36-.44-3.12-1-3.12-3.12,0-1.56,1.26-2.9,3.52-2.9A5,5,0,0,1,187.5,83l-1,1.62a3.28,3.28,0,0,0-2.36-1c-.76,0-1.28.36-1.28.9s.66.86,1.56,1.14c1.4.44,3.24,1,3.24,3.24,0,1.74-1.42,3-3.68,3a5.11,5.11,0,0,1-3.72-1.38Z"/><path class="cls-15" d="M193,85c0-4,2.18-6.9,5.6-6.9a4.71,4.71,0,0,1,4.5,3.2l-2.22,1a2.46,2.46,0,0,0-2.28-1.8c-1.76,0-2.84,1.9-2.84,4.52s1.08,4.52,2.84,4.52a2.52,2.52,0,0,0,2.3-1.94l2.22,1a4.73,4.73,0,0,1-4.52,3.36C195.22,91.91,193,89.05,193,85Z"/><path class="cls-15" d="M204.64,78.33H207V91.67h-2.4Z"/><path class="cls-15" d="M214.62,90.45a3.53,3.53,0,0,1-2.84,1.46,2.31,2.31,0,0,1-2.58-2.6V82h2.4v6.38c0,1,.48,1.4,1.28,1.4a2.12,2.12,0,0,0,1.74-1.18V82H217v9.66h-2.4Z"/><path class="cls-15" d="M219.46,88.85A4,4,0,0,0,222.12,90c.92,0,1.42-.38,1.42-1s-.74-.94-1.66-1.24c-1.36-.44-3.12-1-3.12-3.12,0-1.56,1.26-2.9,3.52-2.9A5,5,0,0,1,225.64,83l-1,1.62a3.28,3.28,0,0,0-2.36-1c-.76,0-1.28.36-1.28.9s.66.86,1.56,1.14c1.4.44,3.24,1,3.24,3.24,0,1.74-1.42,3-3.68,3a5.11,5.11,0,0,1-3.72-1.38Z"/><path class="cls-15" d="M227.84,89.35V84.11h-1.26V82h1.26V79.37h2.4V82h1.6v2.1h-1.6v4.68c0,.62.24,1,.7,1a1,1,0,0,0,.72-.28l.5,1.84a2.78,2.78,0,0,1-1.86.56C228.62,91.91,227.84,91.05,227.84,89.35Z"/><path class="cls-15" d="M237.2,81.77c2.66,0,4.16,2.16,4.16,5.16v.68H235.3A2.3,2.3,0,0,0,237.64,90a2.92,2.92,0,0,0,2.1-.94l1.1,1.44a4.71,4.71,0,0,1-3.46,1.44c-2.72,0-4.5-2-4.5-5.08C232.88,84,234.52,81.77,237.2,81.77ZM235.3,86H239c0-1-.48-2.26-1.88-2.26S235.34,85,235.3,86Z"/><path class="cls-15" d="M243,82h2.4v1.34A3.29,3.29,0,0,1,248,81.79v2.34a2.46,2.46,0,0,0-.58-.06,2.67,2.67,0,0,0-2.06,1.16v6.44H243Z"/><path class="cls-15" d="M253.08,85.81h9.34v2h-9.34Z"/><path class="cls-15" d="M100.88,108.13a4.36,4.36,0,0,0,3.2,1.42c1.2,0,1.84-.66,1.84-1.48,0-1-1-1.46-2.18-2-1.68-.66-3.78-1.46-3.78-4.1,0-2.1,1.64-3.88,4.4-3.88a5.77,5.77,0,0,1,4,1.48l-1.28,2a4.08,4.08,0,0,0-2.82-1.12c-1,0-1.6.56-1.6,1.36s.92,1.32,2.12,1.82c1.72.68,3.82,1.56,3.82,4.2,0,2.34-1.6,4.06-4.52,4.06a6.16,6.16,0,0,1-4.56-1.72Z"/><path class="cls-15" d="M114.1,101.77c2.66,0,4.16,2.16,4.16,5.16v.68H112.2a2.3,2.3,0,0,0,2.34,2.36,2.92,2.92,0,0,0,2.1-.94l1.1,1.44a4.71,4.71,0,0,1-3.46,1.44c-2.72,0-4.5-2-4.5-5.08C109.78,104,111.42,101.77,114.1,101.77Zm-1.9,4.2h3.74c0-1-.48-2.26-1.88-2.26S112.24,105,112.2,106Z"/><path class="cls-15" d="M119.86,98.33h2.4v13.34h-2.4Z"/><path class="cls-15" d="M128.24,101.77c2.66,0,4.16,2.16,4.16,5.16v.68h-6.06a2.3,2.3,0,0,0,2.34,2.36,2.92,2.92,0,0,0,2.1-.94l1.1,1.44a4.71,4.71,0,0,1-3.46,1.44c-2.72,0-4.5-2-4.5-5.08C123.92,104,125.56,101.77,128.24,101.77Zm-1.9,4.2h3.74c0-1-.48-2.26-1.88-2.26S126.38,105,126.34,106Z"/><path class="cls-15" d="M137.92,101.77a3.85,3.85,0,0,1,3.08,1.3l-1.2,1.66a2,2,0,0,0-1.62-.84c-1.38,0-2.2,1.26-2.2,2.94s.82,3,2.2,3a2,2,0,0,0,1.62-.84l1.2,1.66a3.85,3.85,0,0,1-3.08,1.3c-2.66,0-4.42-2.12-4.42-5.08S135.26,101.77,137.92,101.77Z"/><path class="cls-15" d="M142.84,109.35v-5.24h-1.26V102h1.26V99.37h2.4V102h1.6v2.1h-1.6v4.68c0,.62.24,1,.7,1a1,1,0,0,0,.72-.28l.5,1.84a2.78,2.78,0,0,1-1.86.56C143.62,111.91,142.84,111.05,142.84,109.35Z"/><path class="cls-15" d="M152.2,101.77c2.66,0,4.16,2.16,4.16,5.16v.68H150.3a2.3,2.3,0,0,0,2.34,2.36,2.92,2.92,0,0,0,2.1-.94l1.1,1.44a4.71,4.71,0,0,1-3.46,1.44c-2.72,0-4.5-2-4.5-5.08C147.88,104,149.52,101.77,152.2,101.77Zm-1.9,4.2H154c0-1-.48-2.26-1.88-2.26S150.34,105,150.3,106Z"/><path class="cls-15" d="M163.48,110.45a2.9,2.9,0,0,1-2.44,1.46c-2.18,0-3.58-1.9-3.58-5.06s1.4-5.08,3.58-5.08a2.82,2.82,0,0,1,2.44,1.46v-4.9h2.4v13.34h-2.4Zm0-5.42a2,2,0,0,0-1.68-1.14c-1.22,0-1.86,1.26-1.86,3s.64,2.94,1.86,2.94a2,2,0,0,0,1.68-1.14Z"/><path class="cls-15" d="M175,103.17v8.5h-2.66V98.33h2.72l4.38,8.16V98.33h2.68v13.34h-2.56Z"/><path class="cls-15" d="M189.36,110.71a3.17,3.17,0,0,1-2.54,1.2,3,3,0,0,1-3-3.2,2.89,2.89,0,0,1,3-3.12,3.07,3.07,0,0,1,2.54,1.14v-1.28a1.59,1.59,0,0,0-1.78-1.68,3.38,3.38,0,0,0-2.38,1l-.9-1.64a5.48,5.48,0,0,1,3.72-1.4c2.1,0,3.76.94,3.76,3.42v6.48h-2.42Zm0-2.58a1.87,1.87,0,0,0-1.62-.94,1.45,1.45,0,0,0-1.5,1.56,1.44,1.44,0,0,0,1.5,1.54,1.81,1.81,0,0,0,1.62-.92Z"/><path class="cls-15" d="M204.26,105.17c0-.8-.34-1.28-1.1-1.28a2.11,2.11,0,0,0-1.66,1.2v6.58h-2.4v-6.5c0-.78-.32-1.28-1.1-1.28a2.14,2.14,0,0,0-1.66,1.2v6.58h-2.4V102h2.4v1.26a3.42,3.42,0,0,1,2.72-1.5,2.17,2.17,0,0,1,2.34,1.68,3.43,3.43,0,0,1,2.82-1.68,2.24,2.24,0,0,1,2.44,2.56v7.34h-2.4Z"/><path class="cls-15" d="M212.64,101.77c2.66,0,4.16,2.16,4.16,5.16v.68h-6.06a2.3,2.3,0,0,0,2.34,2.36,2.92,2.92,0,0,0,2.1-.94l1.1,1.44a4.71,4.71,0,0,1-3.46,1.44c-2.72,0-4.5-2-4.5-5.08C208.32,104,210,101.77,212.64,101.77Zm-1.9,4.2h3.74c0-1-.48-2.26-1.88-2.26S210.78,105,210.74,106Z"/><path class="cls-15" d="M218.68,108.85a4,4,0,0,0,2.66,1.18c.92,0,1.42-.38,1.42-1s-.74-.94-1.66-1.24c-1.36-.44-3.12-1-3.12-3.12,0-1.56,1.26-2.9,3.52-2.9a5,5,0,0,1,3.36,1.24l-1,1.62a3.28,3.28,0,0,0-2.36-1c-.76,0-1.28.36-1.28.9s.66.86,1.56,1.14c1.4.44,3.24,1,3.24,3.24,0,1.74-1.42,3-3.68,3a5.11,5.11,0,0,1-3.72-1.38Z"/><path class="cls-15" d="M226.64,115.35V102H229v1.22a2.88,2.88,0,0,1,2.44-1.46c2.18,0,3.58,1.9,3.58,5.06s-1.4,5.08-3.58,5.08a2.82,2.82,0,0,1-2.44-1.46v4.9Zm4.06-11.46A2,2,0,0,0,229,105v3.64a2.08,2.08,0,0,0,1.66,1.14c1.24,0,1.88-1.26,1.88-3S231.94,103.89,230.7,103.89Z"/><path class="cls-15" d="M241.72,110.71a3.17,3.17,0,0,1-2.54,1.2,3,3,0,0,1-3-3.2,2.89,2.89,0,0,1,3-3.12,3.07,3.07,0,0,1,2.54,1.14v-1.28a1.59,1.59,0,0,0-1.78-1.68,3.38,3.38,0,0,0-2.38,1l-.9-1.64a5.48,5.48,0,0,1,3.72-1.4c2.1,0,3.76.94,3.76,3.42v6.48h-2.42Zm0-2.58a1.87,1.87,0,0,0-1.62-.94,1.45,1.45,0,0,0-1.5,1.56,1.44,1.44,0,0,0,1.5,1.54,1.81,1.81,0,0,0,1.62-.92Z"/><path class="cls-15" d="M250.22,101.77a3.85,3.85,0,0,1,3.08,1.3l-1.2,1.66a2,2,0,0,0-1.62-.84c-1.38,0-2.2,1.26-2.2,2.94s.82,3,2.2,3a2,2,0,0,0,1.62-.84l1.2,1.66a3.85,3.85,0,0,1-3.08,1.3c-2.66,0-4.42-2.12-4.42-5.08S247.56,101.77,250.22,101.77Z"/><path class="cls-15" d="M258.54,101.77c2.66,0,4.16,2.16,4.16,5.16v.68h-6.06A2.3,2.3,0,0,0,259,110a2.92,2.92,0,0,0,2.1-.94l1.1,1.44a4.71,4.71,0,0,1-3.46,1.44c-2.72,0-4.5-2-4.5-5.08C254.22,104,255.86,101.77,258.54,101.77Zm-1.9,4.2h3.74c0-1-.48-2.26-1.88-2.26S256.68,105,256.64,106Z"/></g></svg>